AtomicAge-Regular.ufo
<glyph name="numbersign" format="1">
  <advance width="1285"/>
  <unicode hex="0023"/>
  <outline>
    <contour>
      <point x="272" y="0" type="line" name="hr00"/>
      <point x="425" y="0" type="line"/>
      <point x="451" y="290" type="line"/>
      <point x="776" y="290" type="line"/>
      <point x="753" y="0" type="line"/>
      <point x="904" y="0" type="line"/>
      <point x="911" y="81"/>
      <point x="920" y="210"/>
      <point x="927" y="290" type="curve"/>
      <point x="1154" y="290" type="line"/>
      <point x="1171" y="465" type="line"/>
      <point x="945" y="465" type="line"/>
      <point x="971" y="764" type="line"/>
      <point x="1196" y="764" type="line"/>
      <point x="1201" y="828"/>
      <point x="1206" y="874"/>
      <point x="1211" y="940" type="curve"/>
      <point x="987" y="940" type="line"/>
      <point x="1010" y="1230" type="line"/>
      <point x="857" y="1230" type="line"/>
      <point x="850" y="1149"/>
      <point x="841" y="1020"/>
      <point x="834" y="940" type="curve"/>
      <point x="508" y="940" type="line"/>
      <point x="531" y="1230" type="line"/>
      <point x="381" y="1230" type="line"/>
      <point x="354" y="940" type="line"/>
      <point x="134" y="940" type="line"/>
      <point x="128" y="876"/>
      <point x="122" y="830"/>
      <point x="116" y="764" type="curve"/>
      <point x="341" y="764" type="line"/>
      <point x="314" y="465" type="line"/>
      <point x="89" y="465" type="line"/>
      <point x="84" y="402"/>
      <point x="79" y="355"/>
      <point x="74" y="290" type="curve"/>
      <point x="300" y="290" type="line"/>
    </contour>
    <contour>
      <point x="468" y="465" type="line"/>
      <point x="491" y="764" type="line"/>
      <point x="816" y="764" type="line"/>
      <point x="792" y="465" type="line"/>
    </contour>
  </outline>
</glyph>
<glyph name="dollar" format="1">
  <advance width="1385"/>
  <unicode hex="0024"/>
  <outline>
    <contour>
      <point x="273" y="254" type="line" smooth="yes" name="hr00"/>
      <point x="273" y="112"/>
      <point x="358" y="0"/>
      <point x="461" y="0" type="curve" smooth="yes"/>
      <point x="659" y="0" type="line"/>
      <point x="659" y="-217" type="line"/>
      <point x="816" y="-217" type="line"/>
      <point x="816" y="0" type="line"/>
      <point x="1004" y="0" type="line" smooth="yes"/>
      <point x="1107" y="0"/>
      <point x="1191" y="112"/>
      <point x="1191" y="254" type="curve" smooth="yes"/>
      <point x="1191" y="385" type="line" smooth="yes"/>
      <point x="1191" y="506"/>
      <point x="1139" y="588"/>
      <point x="1059" y="628" type="curve" smooth="yes"/>
      <point x="816" y="749" type="line"/>
      <point x="816" y="1175" type="line"/>
      <point x="952" y="1175" type="line"/>
      <point x="952" y="989" type="line"/>
      <point x="1191" y="989" type="line"/>
      <point x="1191" y="1092" type="line" smooth="yes"/>
      <point x="1191" y="1234"/>
      <point x="1106" y="1346"/>
      <point x="1003" y="1346" type="curve" smooth="yes"/>
      <point x="816" y="1346" type="line"/>
      <point x="816" y="1565" type="line"/>
      <point x="660" y="1565" type="line"/>
      <point x="660" y="1346" type="line"/>
      <point x="460" y="1346" type="line" smooth="yes"/>
      <point x="357" y="1346"/>
      <point x="273" y="1234"/>
      <point x="273" y="1092" type="curve" smooth="yes"/>
      <point x="273" y="980" type="line" smooth="yes"/>
      <point x="273" y="859"/>
      <point x="325" y="777"/>
      <point x="405" y="737" type="curve" smooth="yes"/>
      <point x="659" y="610" type="line"/>
      <point x="659" y="171" type="line"/>
      <point x="512" y="171" type="line"/>
      <point x="512" y="357" type="line"/>
      <point x="273" y="357" type="line"/>
    </contour>
    <contour>
      <point x="512" y="903" type="line"/>
      <point x="512" y="1175" type="line"/>
      <point x="660" y="1175" type="line"/>
      <point x="660" y="827" type="line"/>
    </contour>
    <contour>
      <point x="816" y="171" type="line"/>
      <point x="816" y="531" type="line"/>
      <point x="952" y="462" type="line"/>
      <point x="952" y="171" type="line"/>
    </contour>
  </outline>
</glyph>
<glyph name="parenright" format="1">
  <advance width="1076"/>
  <unicode hex="0029"/>
  <outline>
    <contour>
      <point x="200" y="-242" type="curve" name="hr00"/>
      <point x="200" y="-388" type="line"/>
      <point x="508" y="-348"/>
      <point x="759" y="-25"/>
      <point x="759" y="429" type="curve" smooth="yes"/>
      <point x="759" y="960" type="line" smooth="yes"/>
      <point x="759" y="1422"/>
      <point x="518" y="1753"/>
      <point x="200" y="1777" type="curve"/>
      <point x="200" y="1629" type="line"/>
      <point x="383" y="1591"/>
      <point x="529" y="1372"/>
      <point x="529" y="1069" type="curve" smooth="yes"/>
      <point x="529" y="319" type="line" smooth="yes"/>
      <point x="529" y="15"/>
      <point x="383" y="-204"/>
    </contour>
  </outline>
</glyph>
<glyph name="plus" format="1">
  <advance width="1285"/>
  <unicode hex="002B"/>
  <outline>
    <contour>
      <point x="251" y="432" type="line" name="hr00"/>
      <point x="600" y="432" type="line"/>
      <point x="600" y="71" type="line"/>
      <point x="777" y="71" type="line"/>
      <point x="777" y="432" type="line"/>
      <point x="1125" y="432" type="line"/>
      <point x="1125" y="608" type="line"/>
      <point x="777" y="608" type="line"/>
      <point x="777" y="966" type="line"/>
      <point x="600" y="966" type="line"/>
      <point x="600" y="608" type="line"/>
      <point x="251" y="608" type="line"/>
    </contour>
  </outline>
</glyph>
<glyph name="comma" format="1">
  <advance width="775"/>
  <unicode hex="002C"/>
  <outline>
    <contour>
      <point x="219" y="157" type="curve" smooth="yes" name="hr01"/>
      <point x="219" y="94"/>
      <point x="252" y="41"/>
      <point x="301" y="12" type="curve"/>
      <point x="210" y="-246" type="line"/>
      <point x="304" y="-291" type="line"/>
      <point x="418" y="-148" type="line" smooth="yes"/>
      <point x="505" y="-41"/>
      <point x="557" y="41"/>
      <point x="557" y="157" type="curve" smooth="yes"/>
      <point x="557" y="251"/>
      <point x="481" y="326"/>
      <point x="388" y="326" type="curve" smooth="yes"/>
      <point x="292" y="326"/>
      <point x="219" y="251"/>
    </contour>
  </outline>
</glyph>
<glyph name="period" format="1">
  <advance width="757"/>
  <unicode hex="002E"/>
  <outline>
    <contour>
      <point x="210" y="156" type="curve" smooth="yes" name="hr00"/>
      <point x="210" y="63"/>
      <point x="285" y="-12"/>
      <point x="378" y="-12" type="curve" smooth="yes"/>
      <point x="470" y="-12"/>
      <point x="547" y="63"/>
      <point x="547" y="156" type="curve" smooth="yes"/>
      <point x="547" y="249"/>
      <point x="471" y="325"/>
      <point x="378" y="325" type="curve" smooth="yes"/>
      <point x="285" y="325"/>
      <point x="210" y="249"/>
    </contour>
  </outline>
</glyph>
<glyph name="slash" format="1">
  <advance width="1218"/>
  <unicode hex="002F"/>
  <outline>
    <contour>
      <point x="150" y="-176" type="curve" name="hr00"/>
      <point x="321" y="-176" type="line"/>
      <point x="1068" y="1769" type="line"/>
      <point x="897" y="1769" type="line"/>
      <point x="645" y="1115"/>
      <point x="402" y="479"/>
    </contour>
  </outline>
</glyph>
<glyph name="two" format="1">
  <advance width="1230"/>
  <unicode hex="0032"/>
  <outline>
    <contour>
      <point x="190" y="0" type="line" name="hr00"/>
      <point x="1037" y="0" type="line"/>
      <point x="1037" y="172" type="line"/>
      <point x="427" y="172" type="line"/>
      <point x="427" y="429" type="line"/>
      <point x="920" y="687" type="line" smooth="yes"/>
      <point x="990" y="723"/>
      <point x="1037" y="783"/>
      <point x="1037" y="890" type="curve" smooth="yes"/>
      <point x="1037" y="1262" type="line" smooth="yes"/>
      <point x="1037" y="1403"/>
      <point x="952" y="1516"/>
      <point x="847" y="1516" type="curve" smooth="yes"/>
      <point x="380" y="1516" type="line" smooth="yes"/>
      <point x="275" y="1516"/>
      <point x="190" y="1403"/>
      <point x="190" y="1262" type="curve" smooth="yes"/>
      <point x="190" y="1157" type="line"/>
      <point x="427" y="1157" type="line"/>
      <point x="427" y="1344" type="line"/>
      <point x="799" y="1344" type="line"/>
      <point x="799" y="859" type="line"/>
      <point x="297" y="599" type="line" smooth="yes"/>
      <point x="232" y="565"/>
      <point x="190" y="470"/>
      <point x="190" y="368" type="curve" smooth="yes"/>
    </contour>
  </outline>
</glyph>
<glyph name="four" format="1">
  <advance width="1285"/>
  <unicode hex="0034"/>
  <outline>
    <contour>
      <point x="153" y="340" type="line" name="hr00"/>
      <point x="786" y="340" type="line"/>
      <point x="786" y="0" type="line"/>
      <point x="1024" y="0" type="line"/>
      <point x="1024" y="340" type="line"/>
      <point x="1192" y="340" type="line"/>
      <point x="1192" y="510" type="line"/>
      <point x="1024" y="510" type="line"/>
      <point x="1024" y="1112" type="line"/>
      <point x="786" y="1065" type="line"/>
      <point x="786" y="510" type="line"/>
      <point x="395" y="510" type="line"/>
      <point x="693" y="1516" type="line"/>
      <point x="448" y="1516" type="line"/>
      <point x="153" y="525" type="line"/>
    </contour>
  </outline>
</glyph>
<glyph name="five" format="1">
  <advance width="1325"/>
  <unicode hex="0035"/>
  <outline>
    <contour>
      <point x="251" y="254" type="line" smooth="yes" name="hr00"/>
      <point x="251" y="114"/>
      <point x="336" y="0"/>
      <point x="441" y="0" type="curve" smooth="yes"/>
      <point x="933" y="0" type="line" smooth="yes"/>
      <point x="1036" y="0"/>
      <point x="1122" y="114"/>
      <point x="1122" y="254" type="curve" smooth="yes"/>
      <point x="1122" y="632" type="line" smooth="yes"/>
      <point x="1122" y="775"/>
      <point x="1036" y="889"/>
      <point x="933" y="889" type="curve" smooth="yes"/>
      <point x="488" y="889" type="line"/>
      <point x="488" y="1334" type="line"/>
      <point x="1087" y="1334" type="line"/>
      <point x="1087" y="1516" type="line"/>
      <point x="251" y="1516" type="line"/>
      <point x="251" y="718" type="line"/>
      <point x="885" y="718" type="line"/>
      <point x="885" y="172" type="line"/>
      <point x="488" y="172" type="line"/>
      <point x="488" y="360" type="line"/>
      <point x="251" y="360" type="line"/>
    </contour>
  </outline>
</glyph>
<glyph name="six" format="1">
  <advance width="1377"/>
  <unicode hex="0036"/>
  <outline>
    <contour>
      <point x="227" y="254" type="line" smooth="yes" name="hr00"/>
      <point x="227" y="114"/>
      <point x="313" y="0"/>
      <point x="418" y="0" type="curve" smooth="yes"/>
      <point x="957" y="0" type="line" smooth="yes"/>
      <point x="1064" y="0"/>
      <point x="1150" y="114"/>
      <point x="1150" y="254" type="curve" smooth="yes"/>
      <point x="1150" y="652" type="line" smooth="yes"/>
      <point x="1150" y="795"/>
      <point x="1064" y="909"/>
      <point x="957" y="909" type="curve" smooth="yes"/>
      <point x="465" y="909" type="line"/>
      <point x="465" y="1344" type="line"/>
      <point x="1046" y="1344" type="line"/>
      <point x="1046" y="1516" type="line"/>
      <point x="418" y="1516" type="line" smooth="yes"/>
      <point x="313" y="1516"/>
      <point x="227" y="1403"/>
      <point x="227" y="1262" type="curve" smooth="yes"/>
    </contour>
    <contour>
      <point x="465" y="172" type="line"/>
      <point x="465" y="748" type="line"/>
      <point x="910" y="748" type="line"/>
      <point x="910" y="172" type="line"/>
    </contour>
  </outline>
</glyph>
<glyph name="seven" format="1">
  <advance width="1285"/>
  <unicode hex="0037"/>
  <outline>
    <contour>
      <point x="495" y="0" type="line" name="hr00"/>
      <point x="749" y="0" type="line"/>
      <point x="1108" y="1329" type="line"/>
      <point x="1108" y="1515" type="line"/>
      <point x="217" y="1515" type="line"/>
      <point x="217" y="1093" type="line"/>
      <point x="441" y="1093" type="line"/>
      <point x="441" y="1344" type="line"/>
      <point x="886" y="1344" type="line"/>
    </contour>
  </outline>
</glyph>
<glyph name="eight" format="1">
  <advance width="1334"/>
  <unicode hex="0038"/>
  <outline>
    <contour>
      <point x="227" y="254" type="line" smooth="yes" name="hr00"/>
      <point x="227" y="114"/>
      <point x="314" y="0"/>
      <point x="418" y="0" type="curve" smooth="yes"/>
      <point x="916" y="0" type="line" smooth="yes"/>
      <point x="1021" y="0"/>
      <point x="1107" y="114"/>
      <point x="1107" y="254" type="curve" smooth="yes"/>
      <point x="1107" y="569" type="line" smooth="yes"/>
      <point x="1107" y="680"/>
      <point x="1043" y="775"/>
      <point x="957" y="819" type="curve"/>
      <point x="1043" y="861"/>
      <point x="1107" y="960"/>
      <point x="1107" y="1070" type="curve" smooth="yes"/>
      <point x="1107" y="1261" type="line" smooth="yes"/>
      <point x="1107" y="1401"/>
      <point x="1021" y="1515"/>
      <point x="916" y="1515" type="curve" smooth="yes"/>
      <point x="418" y="1515" type="line" smooth="yes"/>
      <point x="314" y="1515"/>
      <point x="227" y="1401"/>
      <point x="227" y="1261" type="curve" smooth="yes"/>
      <point x="227" y="1070" type="line" smooth="yes"/>
      <point x="227" y="960"/>
      <point x="290" y="862"/>
      <point x="377" y="819" type="curve"/>
      <point x="290" y="776"/>
      <point x="227" y="680"/>
      <point x="227" y="569" type="curve" smooth="yes"/>
    </contour>
    <contour>
      <point x="466" y="900" type="line"/>
      <point x="466" y="1344" type="line"/>
      <point x="867" y="1344" type="line"/>
      <point x="867" y="900" type="line"/>
    </contour>
    <contour>
      <point x="466" y="172" type="line"/>
      <point x="466" y="729" type="line"/>
      <point x="867" y="729" type="line"/>
      <point x="867" y="172" type="line"/>
    </contour>
  </outline>
</glyph>
<glyph name="greater" format="1">
  <advance width="1285"/>
  <unicode hex="003E"/>
  <outline>
    <contour>
      <point x="270" y="161" type="line" name="hr00"/>
      <point x="1106" y="429" type="line"/>
      <point x="1106" y="615" type="line"/>
      <point x="270" y="883" type="line"/>
      <point x="270" y="701" type="line"/>
      <point x="918" y="523" type="line"/>
      <point x="270" y="342" type="line"/>
    </contour>
  </outline>
</glyph>
<glyph name="question" format="1">
  <advance width="1113"/>
  <unicode hex="003F"/>
  <outline>
    <contour>
      <point x="403" y="521" type="line" name="hr01"/>
      <point x="641" y="521" type="line"/>
      <point x="641" y="695" type="line"/>
      <point x="884" y="819" type="line" smooth="yes"/>
      <point x="951" y="853"/>
      <point x="1000" y="952"/>
      <point x="1000" y="1054" type="curve" smooth="yes"/>
      <point x="1000" y="1262" type="line" smooth="yes"/>
      <point x="1000" y="1403"/>
      <point x="915" y="1516"/>
      <point x="810" y="1516" type="curve" smooth="yes"/>
      <point x="302" y="1516" type="line" smooth="yes"/>
      <point x="196" y="1516"/>
      <point x="112" y="1403"/>
      <point x="112" y="1262" type="curve" smooth="yes"/>
      <point x="112" y="1131" type="line"/>
      <point x="351" y="1131" type="line"/>
      <point x="351" y="1344" type="line"/>
      <point x="761" y="1344" type="line"/>
      <point x="761" y="1003" type="line"/>
      <point x="511" y="876" type="line" smooth="yes"/>
      <point x="445" y="842"/>
      <point x="403" y="748"/>
      <point x="403" y="645" type="curve" smooth="yes"/>
    </contour>
    <contour>
      <point x="355" y="157" type="curve" smooth="yes" name="hr02"/>
      <point x="355" y="64"/>
      <point x="430" y="-11"/>
      <point x="523" y="-11" type="curve" smooth="yes"/>
      <point x="615" y="-11"/>
      <point x="692" y="64"/>
      <point x="692" y="157" type="curve" smooth="yes"/>
      <point x="692" y="250"/>
      <point x="616" y="326"/>
      <point x="523" y="326" type="curve" smooth="yes"/>
      <point x="430" y="326"/>
      <point x="355" y="250"/>
    </contour>
  </outline>
</glyph>
<glyph name="at" format="1">
  <advance width="2314"/>
  <unicode hex="0040"/>
  <outline>
    <contour>
      <point x="243" y="-194" type="line" smooth="yes" name="hr00"/>
      <point x="243" y="-330"/>
      <point x="345" y="-441"/>
      <point x="467" y="-441" type="curve" smooth="yes"/>
      <point x="1505" y="-441" type="line" smooth="yes"/>
      <point x="1598" y="-441"/>
      <point x="1680" y="-381"/>
      <point x="1715" y="-294" type="curve"/>
      <point x="435" y="-294" type="line"/>
      <point x="435" y="1323" type="line"/>
      <point x="1957" y="1323" type="line"/>
      <point x="1957" y="171" type="line"/>
      <point x="1580" y="171" type="line"/>
      <point x="1580" y="1047" type="line"/>
      <point x="936" y="1047" type="line" smooth="yes"/>
      <point x="813" y="1047"/>
      <point x="720" y="925"/>
      <point x="720" y="764" type="curve" smooth="yes"/>
      <point x="720" y="251" type="line" smooth="yes"/>
      <point x="720" y="113"/>
      <point x="805" y="0"/>
      <point x="910" y="0" type="curve" smooth="yes"/>
      <point x="1183" y="0" type="line" smooth="yes"/>
      <point x="1248" y="0"/>
      <point x="1311" y="48"/>
      <point x="1349" y="124" type="curve"/>
      <point x="1387" y="48"/>
      <point x="1450" y="0"/>
      <point x="1515" y="0" type="curve"/>
      <point x="1929" y="0" type="line" smooth="yes"/>
      <point x="2039" y="0"/>
      <point x="2151" y="101"/>
      <point x="2151" y="252" type="curve" smooth="yes"/>
      <point x="2151" y="1221" type="line" smooth="yes"/>
      <point x="2151" y="1358"/>
      <point x="2050" y="1467"/>
      <point x="1925" y="1467" type="curve" smooth="yes"/>
      <point x="467" y="1467" type="line" smooth="yes"/>
      <point x="345" y="1467"/>
      <point x="243" y="1358"/>
      <point x="243" y="1221" type="curve" smooth="yes"/>
    </contour>
    <contour>
      <point x="958" y="171" type="line"/>
      <point x="958" y="876" type="line"/>
      <point x="1342" y="876" type="line"/>
      <point x="1342" y="171" type="line"/>
    </contour>
  </outline>
</glyph>
<glyph name="B" format="1">
  <advance width="1348"/>
  <unicode hex="0042"/>
  <outline>
    <contour>
      <point x="230" y="0" type="line" name="hr01"/>
      <point x="987" y="0" type="line" smooth="yes"/>
      <point x="1091" y="0"/>
      <point x="1178" y="113"/>
      <point x="1178" y="252" type="curve" smooth="yes"/>
      <point x="1178" y="402" type="line" smooth="yes"/>
      <point x="1178" y="494"/>
      <point x="1127" y="613"/>
      <point x="1009" y="656" type="curve"/>
      <point x="1092" y="705"/>
      <point x="1138" y="791"/>
      <point x="1138" y="888" type="curve" smooth="yes" name="hr02"/>
      <point x="1138" y="1262" type="line" smooth="yes"/>
      <point x="1138" y="1404"/>
      <point x="1038" y="1516"/>
      <point x="932" y="1516" type="curve" smooth="yes"/>
      <point x="230" y="1516" type="line"/>
      <point x="230" y="736" type="line"/>
      <point x="153" y="736" type="line" smooth="yes"/>
      <point x="63" y="736"/>
      <point x="-14" y="660"/>
      <point x="-22" y="565" type="curve"/>
      <point x="230" y="565" type="line"/>
    </contour>
    <contour>
      <point x="467" y="736" type="line"/>
      <point x="467" y="1345" type="line"/>
      <point x="901" y="1345" type="line"/>
      <point x="901" y="736" type="line"/>
    </contour>
    <contour>
      <point x="467" y="171" type="line"/>
      <point x="467" y="565" type="line"/>
      <point x="939" y="565" type="line" name="hr03"/>
      <point x="939" y="171" type="line"/>
    </contour>
    <contour>
      <point x="682" y="1770" type="move" name="top"/>
    </contour>
  </outline>
</glyph>
<glyph name="F" format="1">
  <advance width="1193"/>
  <unicode hex="0046"/>
  <outline>
    <contour>
      <point x="184" y="564" type="curve" name="hr00"/>
      <point x="673" y="564" type="line"/>
      <point x="673" y="-262" type="line"/>
      <point x="713" y="-262" type="line" smooth="yes"/>
      <point x="814" y="-262"/>
      <point x="907" y="-150"/>
      <point x="907" y="-11" type="curve" smooth="yes"/>
      <point x="907" y="564" type="line"/>
      <point x="1112" y="564" type="line"/>
      <point x="1111" y="725" type="line"/>
      <point x="907" y="725" type="line"/>
      <point x="907" y="1516" type="line"/>
      <point x="201" y="1516" type="line" smooth="yes"/>
      <point x="113" y="1516"/>
      <point x="36" y="1439"/>
      <point x="26" y="1346" type="curve"/>
      <point x="673" y="1346" type="line"/>
      <point x="673" y="725" type="line"/>
      <point x="349" y="725" type="line" smooth="yes"/>
      <point x="264" y="725"/>
      <point x="192" y="652"/>
    </contour>
    <contour>
      <point x="584" y="1770" type="move" name="top"/>
    </contour>
  </outline>
</glyph>
<glyph name="G" format="1">
  <advance width="1348"/>
  <unicode hex="0047"/>
  <outline>
    <contour>
      <point x="200" y="252" type="line" smooth="yes" name="hr00"/>
      <point x="200" y="113"/>
      <point x="285" y="0"/>
      <point x="388" y="0" type="curve" smooth="yes"/>
      <point x="953" y="0" type="line"/>
      <point x="953" y="-368" type="line"/>
      <point x="1003" y="-368" type="line" smooth="yes"/>
      <point x="1105" y="-368"/>
      <point x="1188" y="-253"/>
      <point x="1188" y="-117" type="curve" smooth="yes"/>
      <point x="1190" y="883" type="line"/>
      <point x="953" y="883" type="line"/>
      <point x="953" y="172" type="line"/>
      <point x="439" y="172" type="line"/>
      <point x="439" y="1346" type="line"/>
      <point x="1188" y="1346" type="line"/>
      <point x="1188" y="1515" type="line"/>
      <point x="388" y="1515" type="line" smooth="yes"/>
      <point x="285" y="1515"/>
      <point x="200" y="1403"/>
      <point x="200" y="1261" type="curve"/>
    </contour>
    <contour>
      <point x="700" y="1770" type="move" name="top"/>
    </contour>
    <contour>
      <point x="695" y="1770" type="move" name="top"/>
    </contour>
    <contour>
      <point x="695" y="0" type="move" name="btm"/>
    </contour>
  </outline>
</glyph>
<glyph name="H" format="1">
  <advance width="1437"/>
  <unicode hex="0048"/>
  <outline>
    <contour>
      <point x="230" y="0" type="line" name="hr00"/>
      <point x="468" y="0" type="line"/>
      <point x="468" y="565" type="line"/>
      <point x="1007" y="565" type="line"/>
      <point x="1007" y="0" type="line"/>
      <point x="1247" y="0" type="line"/>
      <point x="1247" y="1516" type="line"/>
      <point x="1007" y="1516" type="line"/>
      <point x="1007" y="736" type="line"/>
      <point x="468" y="736" type="line"/>
      <point x="468" y="1516" type="line"/>
      <point x="230" y="1516" type="line"/>
      <point x="230" y="736" type="line"/>
      <point x="166" y="736" type="line" smooth="yes"/>
      <point x="78" y="736"/>
      <point x="1" y="660"/>
      <point x="-9" y="565" type="curve"/>
      <point x="230" y="565" type="line"/>
    </contour>
    <contour>
      <point x="742" y="1770" type="move" name="top"/>
    </contour>
  </outline>
</glyph>
<glyph name="M" format="1">
  <advance width="1983"/>
  <unicode hex="004D"/>
  <outline>
    <contour>
      <point x="220" y="0" type="line" name="hr00"/>
      <point x="459" y="0" type="line"/>
      <point x="459" y="861" type="line"/>
      <point x="871" y="1320" type="line"/>
      <point x="871" y="0" type="line"/>
      <point x="1107" y="0" type="line"/>
      <point x="1107" y="861" type="line"/>
      <point x="1491" y="1320" type="line"/>
      <point x="1491" y="252" type="line" smooth="yes"/>
      <point x="1491" y="113"/>
      <point x="1569" y="0"/>
      <point x="1674" y="0" type="curve" smooth="yes"/>
      <point x="1768" y="0" type="line" smooth="yes"/>
      <point x="1856" y="0"/>
      <point x="1933" y="77"/>
      <point x="1943" y="171" type="curve"/>
      <point x="1727" y="171" type="line"/>
      <point x="1727" y="1284" type="line" smooth="yes"/>
      <point x="1727" y="1413"/>
      <point x="1656" y="1516"/>
      <point x="1543" y="1516" type="curve" smooth="yes"/>
      <point x="1480" y="1516"/>
      <point x="1409" y="1491"/>
      <point x="1370" y="1438" type="curve" smooth="yes"/>
      <point x="1107" y="1114" type="line"/>
      <point x="1107" y="1284" type="line" smooth="yes"/>
      <point x="1107" y="1413"/>
      <point x="1036" y="1516"/>
      <point x="923" y="1516" type="curve" smooth="yes"/>
      <point x="860" y="1516"/>
      <point x="792" y="1488"/>
      <point x="750" y="1438" type="curve" smooth="yes"/>
      <point x="459" y="1114" type="line"/>
      <point x="459" y="1516" type="line"/>
      <point x="220" y="1516" type="line"/>
    </contour>
    <contour>
      <point x="1061" y="1770" type="move" name="top"/>
    </contour>
  </outline>
</glyph>
<glyph name="N" format="1">
  <advance width="1443"/>
  <unicode hex="004E"/>
  <outline>
    <contour>
      <point x="220" y="0" type="line" name="hr00"/>
      <point x="457" y="0" type="line"/>
      <point x="457" y="944" type="line"/>
      <point x="933" y="1315" type="line"/>
      <point x="933" y="252" type="line" smooth="yes"/>
      <point x="933" y="113"/>
      <point x="1016" y="0"/>
      <point x="1120" y="0" type="curve" smooth="yes"/>
      <point x="1228" y="0" type="line" smooth="yes"/>
      <point x="1316" y="0"/>
      <point x="1393" y="77"/>
      <point x="1403" y="172" type="curve"/>
      <point x="1178" y="172" type="line"/>
      <point x="1178" y="1284" type="line" smooth="yes"/>
      <point x="1178" y="1416"/>
      <point x="1094" y="1516"/>
      <point x="991" y="1516" type="curve" smooth="yes"/>
      <point x="924" y="1516"/>
      <point x="879" y="1480"/>
      <point x="830" y="1441" type="curve" smooth="yes"/>
      <point x="457" y="1149" type="line"/>
      <point x="457" y="1516" type="line"/>
      <point x="220" y="1516" type="line"/>
    </contour>
    <contour>
      <point x="698" y="1770" type="move" name="top"/>
    </contour>
    <contour>
      <point x="726" y="0" type="move" name="btm"/>
    </contour>
  </outline>
</glyph>
<glyph name="P" format="1">
  <advance width="1305"/>
  <unicode hex="0050"/>
  <outline>
    <contour>
      <point x="231" y="0" type="line" name="hr00"/>
      <point x="471" y="0" type="line"/>
      <point x="471" y="526" type="line"/>
      <point x="975" y="526" type="line" smooth="yes"/>
      <point x="1079" y="526"/>
      <point x="1165" y="638"/>
      <point x="1165" y="778" type="curve" smooth="yes"/>
      <point x="1165" y="1262" type="line" smooth="yes"/>
      <point x="1165" y="1404"/>
      <point x="1079" y="1516"/>
      <point x="975" y="1516" type="curve" smooth="yes"/>
      <point x="230" y="1516" type="line"/>
      <point x="230" y="697" type="line"/>
      <point x="118" y="697" type="line" smooth="yes"/>
      <point x="30" y="697"/>
      <point x="-47" y="620"/>
      <point x="-57" y="526" type="curve"/>
      <point x="231" y="526" type="line"/>
    </contour>
    <contour>
      <point x="470" y="697" type="line"/>
      <point x="470" y="1347" type="line"/>
      <point x="932" y="1347" type="line"/>
      <point x="932" y="697" type="line"/>
    </contour>
    <contour>
      <point x="710" y="1770" type="move" name="top"/>
    </contour>
    <contour>
      <point x="554" y="0" type="move" name="btm"/>
    </contour>
  </outline>
</glyph>
<glyph name="S" format="1">
  <advance width="1279"/>
  <unicode hex="0053"/>
  <outline>
    <contour>
      <point x="275" y="0" type="curve" name="hr01"/>
      <point x="868" y="0" type="line" smooth="yes"/>
      <point x="972" y="0"/>
      <point x="1056" y="113"/>
      <point x="1056" y="252" type="curve" smooth="yes" name="hr02"/>
      <point x="1056" y="360" type="line" smooth="yes"/>
      <point x="1056" y="468"/>
      <point x="1011" y="559"/>
      <point x="942" y="594" type="curve" smooth="yes"/>
      <point x="400" y="871" type="line"/>
      <point x="400" y="1345" type="line"/>
      <point x="850" y="1345" type="line" name="hr03"/>
      <point x="850" y="966" type="line"/>
      <point x="1089" y="966" type="line"/>
      <point x="1089" y="1262" type="line" smooth="yes"/>
      <point x="1089" y="1404"/>
      <point x="1004" y="1516"/>
      <point x="901" y="1516" type="curve" smooth="yes"/>
      <point x="348" y="1516" type="line" smooth="yes"/>
      <point x="245" y="1516"/>
      <point x="161" y="1404"/>
      <point x="161" y="1262" type="curve" smooth="yes"/>
      <point x="161" y="918" type="line" smooth="yes"/>
      <point x="161" y="797"/>
      <point x="213" y="715"/>
      <point x="293" y="675" type="curve" smooth="yes"/>
      <point x="817" y="414" type="line" name="hr04"/>
      <point x="817" y="171" type="line"/>
      <point x="450" y="171" type="line" smooth="yes"/>
      <point x="362" y="171"/>
      <point x="285" y="94"/>
    </contour>
    <contour>
      <point x="625" y="1770" type="move" name="top"/>
    </contour>
    <contour>
      <point x="625" y="0" type="move" name="btm"/>
    </contour>
  </outline>
</glyph>
<glyph name="U" format="1">
  <advance width="1396"/>
  <unicode hex="0055"/>
  <outline>
    <contour>
      <point x="200" y="252" type="line" smooth="yes" name="hr01"/>
      <point x="200" y="113"/>
      <point x="292" y="0"/>
      <point x="398" y="0" type="curve" smooth="yes"/>
      <point x="513" y="0" type="line" smooth="yes"/>
      <point x="545" y="0"/>
      <point x="577" y="12"/>
      <point x="601" y="33" type="curve" smooth="yes"/>
      <point x="918" y="288" type="line"/>
      <point x="918" y="0" type="line"/>
      <point x="1181" y="0" type="line" smooth="yes"/>
      <point x="1269" y="0"/>
      <point x="1346" y="77"/>
      <point x="1356" y="172" type="curve"/>
      <point x="1156" y="172" type="line"/>
      <point x="1156" y="1516" type="line"/>
      <point x="918" y="1516" type="line"/>
      <point x="918" y="486" type="line"/>
      <point x="533" y="182" type="line" name="hr02"/>
      <point x="440" y="182" type="line"/>
      <point x="440" y="1516" type="line"/>
      <point x="200" y="1516" type="line"/>
    </contour>
    <contour>
      <point x="701" y="1770" type="move" name="top"/>
    </contour>
  </outline>
</glyph>
<glyph name="W" format="1">
  <advance width="1888"/>
  <unicode hex="0057"/>
  <outline>
    <contour>
      <point x="230" y="254" type="line" smooth="yes" name="hr00"/>
      <point x="230" y="114"/>
      <point x="316" y="0"/>
      <point x="421" y="0" type="curve" smooth="yes"/>
      <point x="792" y="0" type="line" smooth="yes"/>
      <point x="857" y="0"/>
      <point x="920" y="48"/>
      <point x="958" y="124" type="curve"/>
      <point x="996" y="48"/>
      <point x="1059" y="0"/>
      <point x="1124" y="0" type="curve" smooth="yes"/>
      <point x="1497" y="0" type="line" smooth="yes"/>
      <point x="1603" y="0"/>
      <point x="1688" y="114"/>
      <point x="1688" y="254" type="curve" smooth="yes"/>
      <point x="1688" y="1517" type="line"/>
      <point x="1449" y="1517" type="line"/>
      <point x="1449" y="172" type="line"/>
      <point x="1079" y="172" type="line"/>
      <point x="1079" y="1517" type="line"/>
      <point x="839" y="1517" type="line"/>
      <point x="839" y="172" type="line"/>
      <point x="469" y="172" type="line"/>
      <point x="469" y="1517" type="line"/>
      <point x="141" y="1517" type="line" smooth="yes"/>
      <point x="53" y="1517"/>
      <point x="-24" y="1440"/>
      <point x="-34" y="1346" type="curve"/>
      <point x="230" y="1346" type="line"/>
    </contour>
    <contour>
      <point x="962" y="1770" type="move" name="top"/>
    </contour>
  </outline>
</glyph>
<glyph name="X" format="1">
  <advance width="1203"/>
  <unicode hex="0058"/>
  <outline>
    <contour>
      <point x="11" y="0" type="line" name="hr00"/>
      <point x="267" y="0" type="line"/>
      <point x="560" y="606" type="line"/>
      <point x="874" y="0" type="line"/>
      <point x="1071" y="0" type="line" smooth="yes"/>
      <point x="1159" y="0"/>
      <point x="1236" y="77"/>
      <point x="1246" y="171" type="curve"/>
      <point x="1029" y="171" type="line"/>
      <point x="688" y="798" type="line"/>
      <point x="1079" y="1516" type="line"/>
      <point x="830" y="1516" type="line"/>
      <point x="575" y="992" type="line"/>
      <point x="311" y="1516" type="line"/>
      <point x="62" y="1516" type="line"/>
      <point x="450" y="802" type="line"/>
    </contour>
  </outline>
</glyph>
<glyph name="Y" format="1">
  <advance width="1358"/>
  <unicode hex="0059"/>
  <outline>
    <contour>
      <point x="275" y="0" type="curve" name="hr00"/>
      <point x="978" y="0" type="line" smooth="yes"/>
      <point x="1083" y="0"/>
      <point x="1168" y="115"/>
      <point x="1168" y="251" type="curve"/>
      <point x="1168" y="1516" type="line"/>
      <point x="930" y="1516" type="line"/>
      <point x="930" y="815" type="line"/>
      <point x="545" y="578" type="line"/>
      <point x="452" y="578" type="line"/>
      <point x="452" y="1516" type="line"/>
      <point x="185" y="1516" type="line" smooth="yes"/>
      <point x="87" y="1516"/>
      <point x="10" y="1439"/>
      <point x="0" y="1345" type="curve"/>
      <point x="212" y="1345" type="line"/>
      <point x="212" y="658" type="line" smooth="yes"/>
      <point x="212" y="519"/>
      <point x="304" y="406"/>
      <point x="410" y="406" type="curve" smooth="yes"/>
      <point x="523" y="406" type="line"/>
      <point x="555" y="405"/>
      <point x="599" y="417"/>
      <point x="626" y="434" type="curve" smooth="yes"/>
      <point x="930" y="618" type="line"/>
      <point x="930" y="171" type="line"/>
      <point x="450" y="171" type="line" smooth="yes"/>
      <point x="362" y="171"/>
      <point x="285" y="94"/>
    </contour>
    <contour>
      <point x="666" y="1770" type="move" name="top"/>
    </contour>
  </outline>
</glyph>
<glyph name="bracketleft" format="1">
  <advance width="1113"/>
  <unicode hex="005B"/>
  <outline>
    <contour>
      <point x="317" y="-146" type="line" smooth="yes" name="hr00"/>
      <point x="317" y="-281"/>
      <point x="419" y="-392"/>
      <point x="541" y="-392" type="curve" smooth="yes"/>
      <point x="875" y="-392" type="line"/>
      <point x="875" y="-245" type="line"/>
      <point x="546" y="-245" type="line"/>
      <point x="546" y="1634" type="line"/>
      <point x="875" y="1634" type="line"/>
      <point x="875" y="1779" type="line"/>
      <point x="541" y="1779" type="line" smooth="yes"/>
      <point x="419" y="1779"/>
      <point x="317" y="1670"/>
      <point x="317" y="1534" type="curve" smooth="yes"/>
    </contour>
  </outline>
</glyph>
<glyph name="backslash" format="1">
  <advance width="1219"/>
  <unicode hex="005C"/>
  <outline>
    <contour>
      <point x="896" y="-176" type="line" name="hr00"/>
      <point x="1069" y="-176" type="line"/>
      <point x="819" y="475"/>
      <point x="571" y="1117"/>
      <point x="320" y="1769" type="curve"/>
      <point x="150" y="1769" type="line"/>
    </contour>
  </outline>
</glyph>
<glyph name="asciicircum" format="1">
  <advance width="1285"/>
  <unicode hex="005E"/>
  <outline>
    <contour>
      <point x="227" y="467" type="line" name="hr00"/>
      <point x="432" y="467" type="line"/>
      <point x="668" y="1283" type="line"/>
      <point x="910" y="467" type="line"/>
      <point x="1125" y="467" type="line"/>
      <point x="1006" y="818"/>
      <point x="887" y="1164"/>
      <point x="769" y="1515" type="curve"/>
      <point x="567" y="1515" type="line"/>
    </contour>
  </outline>
</glyph>
<glyph name="underscore" format="1">
  <advance width="1529"/>
  <unicode hex="005F"/>
  <outline>
    <contour>
      <point x="-78" y="-127" type="line" name="hr00"/>
      <point x="-78" y="-255" type="line"/>
      <point x="1608" y="-255" type="line"/>
      <point x="1608" y="-127" type="line"/>
    </contour>
  </outline>
</glyph>
<glyph name="grave" format="1">
  <advance width="909"/>
  <unicode hex="0060"/>
  <outline>
    <contour>
      <point x="274" y="1373" type="curve" name="hr00"/>
      <point x="698" y="1260" type="line"/>
      <point x="759" y="1365" type="line"/>
      <point x="378" y="1639" type="line" smooth="yes"/>
      <point x="347" y="1661"/>
      <point x="315" y="1672"/>
      <point x="285" y="1672" type="curve" smooth="yes"/>
      <point x="234" y="1672"/>
      <point x="188" y="1641"/>
      <point x="163" y="1586" type="curve" smooth="yes"/>
      <point x="154" y="1566"/>
      <point x="150" y="1546"/>
      <point x="150" y="1527" type="curve" smooth="yes"/>
      <point x="150" y="1456"/>
      <point x="204" y="1392"/>
    </contour>
    <contour>
      <point x="549" y="1530" type="move" name="_top"/>
    </contour>
  </outline>
</glyph>
<glyph name="b" format="1">
  <advance width="1275"/>
  <unicode hex="0062"/>
  <outline>
    <contour>
      <point x="192" y="0" type="line" name="hr01"/>
      <point x="430" y="0" type="line"/>
      <point x="430" y="113" type="line" name="hr02"/>
      <point x="468" y="44"/>
      <point x="526" y="0"/>
      <point x="591" y="0" type="curve" smooth="yes" name="hr03"/>
      <point x="1118" y="0" type="line" smooth="yes"/>
      <point x="1206" y="0"/>
      <point x="1283" y="77"/>
      <point x="1293" y="171" type="curve"/>
      <point x="1082" y="171" type="line"/>
      <point x="1082" y="793" type="line" smooth="yes"/>
      <point x="1082" y="934"/>
      <point x="996" y="1047"/>
      <point x="893" y="1047" type="curve" smooth="yes"/>
      <point x="591" y="1047" type="line" smooth="yes"/>
      <point x="526" y="1047"/>
      <point x="467" y="1003"/>
      <point x="430" y="931" type="curve"/>
      <point x="430" y="1591" type="line"/>
      <point x="192" y="1591" type="line"/>
    </contour>
    <contour>
      <point x="430" y="171" type="line"/>
      <point x="430" y="876" type="line"/>
      <point x="844" y="876" type="line"/>
      <point x="844" y="171" type="line"/>
    </contour>
    <contour>
      <point x="828" y="1530" type="move" name="top"/>
    </contour>
    <contour>
      <point x="742" y="0" type="move" name="btm"/>
    </contour>
  </outline>
</glyph>
<glyph name="c" format="1">
  <advance width="1269"/>
  <unicode hex="0063"/>
  <outline>
    <contour>
      <point x="192" y="254" type="line" smooth="yes" name="hr00"/>
      <point x="192" y="114"/>
      <point x="277" y="-2"/>
      <point x="382" y="0" type="curve" smooth="yes"/>
      <point x="955" y="0" type="line" smooth="yes"/>
      <point x="1043" y="2"/>
      <point x="1120" y="77"/>
      <point x="1130" y="171" type="curve"/>
      <point x="430" y="171" type="line"/>
      <point x="430" y="876" type="line"/>
      <point x="859" y="876" type="line"/>
      <point x="859" y="607" type="line"/>
      <point x="1098" y="607" type="line"/>
      <point x="1098" y="793" type="line" smooth="yes"/>
      <point x="1098" y="934"/>
      <point x="1012" y="1047"/>
      <point x="908" y="1047" type="curve" smooth="yes"/>
      <point x="382" y="1047" type="line" smooth="yes"/>
      <point x="277" y="1047"/>
      <point x="192" y="934"/>
      <point x="192" y="793" type="curve" smooth="yes"/>
    </contour>
    <contour>
      <point x="656" y="1530" type="move" name="top"/>
    </contour>
    <contour>
      <point x="690" y="0" type="move" name="btm"/>
    </contour>
  </outline>
</glyph>
<glyph name="d" format="1">
  <advance width="1275"/>
  <unicode hex="0064"/>
  <outline>
    <contour>
      <point x="192" y="254" type="line" smooth="yes" name="hr00"/>
      <point x="192" y="114"/>
      <point x="277" y="0"/>
      <point x="382" y="0" type="curve" smooth="yes"/>
      <point x="686" y="0" type="line" smooth="yes"/>
      <point x="748" y="0"/>
      <point x="808" y="42"/>
      <point x="844" y="109" type="curve"/>
      <point x="844" y="0" type="line"/>
      <point x="1097" y="0" type="line" smooth="yes"/>
      <point x="1185" y="0"/>
      <point x="1262" y="77"/>
      <point x="1272" y="171" type="curve"/>
      <point x="1082" y="171" type="line"/>
      <point x="1082" y="1590" type="line"/>
      <point x="844" y="1590" type="line"/>
      <point x="844" y="1047" type="line"/>
      <point x="382" y="1047" type="line" smooth="yes"/>
      <point x="277" y="1047"/>
      <point x="192" y="934"/>
      <point x="192" y="793" type="curve" smooth="yes"/>
    </contour>
    <contour>
      <point x="430" y="171" type="line"/>
      <point x="430" y="876" type="line"/>
      <point x="844" y="876" type="line"/>
      <point x="844" y="171" type="line"/>
    </contour>
    <contour>
      <point x="465" y="1530" type="move" name="top"/>
    </contour>
    <contour>
      <point x="732" y="0" type="move" name="btm"/>
    </contour>
  </outline>
</glyph>
<glyph name="e" format="1">
  <advance width="1275"/>
  <unicode hex="0065"/>
  <outline>
    <contour>
      <point x="192" y="254" type="line" smooth="yes" name="hr00"/>
      <point x="192" y="114"/>
      <point x="277" y="0"/>
      <point x="382" y="0" type="curve" smooth="yes"/>
      <point x="990" y="0" type="line" smooth="yes"/>
      <point x="1078" y="0"/>
      <point x="1155" y="77"/>
      <point x="1165" y="171" type="curve"/>
      <point x="431" y="171" type="line"/>
      <point x="431" y="460" type="line"/>
      <point x="1103" y="460" type="line"/>
      <point x="1103" y="793" type="line" smooth="yes"/>
      <point x="1103" y="934"/>
      <point x="1017" y="1047"/>
      <point x="913" y="1047" type="curve" smooth="yes"/>
      <point x="382" y="1047" type="line" smooth="yes"/>
      <point x="277" y="1047"/>
      <point x="192" y="934"/>
      <point x="192" y="793" type="curve" smooth="yes"/>
    </contour>
    <contour>
      <point x="431" y="600" type="line"/>
      <point x="431" y="876" type="line"/>
      <point x="864" y="876" type="line"/>
      <point x="864" y="600" type="line"/>
    </contour>
    <contour>
      <point x="643" y="1530" type="move" name="top"/>
    </contour>
    <contour>
      <point x="678" y="0" type="move" name="btm"/>
    </contour>
  </outline>
</glyph>
<glyph name="f" format="1">
  <advance width="762"/>
  <unicode hex="0066"/>
  <outline>
    <contour>
      <point x="496" y="-269" type="curve" smooth="yes" name="hr00"/>
      <point x="496" y="894" type="line"/>
      <point x="746" y="894" type="line"/>
      <point x="746" y="1048" type="line"/>
      <point x="496" y="1048" type="line"/>
      <point x="496" y="1417" type="line"/>
      <point x="830" y="1417" type="line"/>
      <point x="830" y="1591" type="line"/>
      <point x="448" y="1591" type="line" smooth="yes"/>
      <point x="343" y="1591"/>
      <point x="258" y="1477"/>
      <point x="258" y="1336" type="curve" smooth="yes"/>
      <point x="258" y="1048" type="line"/>
      <point x="178" y="1048" type="line"/>
      <point x="178" y="894" type="line"/>
      <point x="258" y="894" type="line"/>
      <point x="258" y="-525" type="line"/>
      <point x="294" y="-525" type="line" smooth="yes"/>
      <point x="404" y="-525"/>
      <point x="496" y="-409"/>
    </contour>
    <contour>
      <point x="356" y="1914" type="move" name="top"/>
    </contour>
    <contour>
      <point x="492" y="0" type="move" name="btm"/>
    </contour>
  </outline>
</glyph>
<glyph name="m" format="1">
  <advance width="1817"/>
  <unicode hex="006D"/>
  <outline>
    <contour>
      <point x="220" y="0" type="line" name="hr01"/>
      <point x="459" y="0" type="line"/>
      <point x="459" y="415" type="line"/>
      <point x="815" y="855" type="line"/>
      <point x="815" y="0" type="line"/>
      <point x="1054" y="0" type="line"/>
      <point x="1054" y="450" type="line"/>
      <point x="1388" y="855" type="line"/>
      <point x="1388" y="254" type="line" smooth="yes"/>
      <point x="1388" y="114"/>
      <point x="1470" y="0"/>
      <point x="1575" y="0" type="curve" smooth="yes"/>
      <point x="1629" y="0" type="line" smooth="yes"/>
      <point x="1717" y="0"/>
      <point x="1794" y="77"/>
      <point x="1804" y="171" type="curve"/>
      <point x="1626" y="171" type="line"/>
      <point x="1626" y="794" type="line" smooth="yes"/>
      <point x="1626" y="935"/>
      <point x="1532" y="1048"/>
      <point x="1425" y="1048" type="curve" smooth="yes"/>
      <point x="1360" y="1048"/>
      <point x="1306" y="1020"/>
      <point x="1264" y="971" type="curve" smooth="yes"/>
      <point x="1054" y="681" type="line"/>
      <point x="1054" y="794" type="line" smooth="yes"/>
      <point x="1054" y="935"/>
      <point x="960" y="1048"/>
      <point x="853" y="1048" type="curve" smooth="yes"/>
      <point x="787" y="1048"/>
      <point x="744" y="1021"/>
      <point x="702" y="971" type="curve" smooth="yes"/>
      <point x="459" y="645" type="line"/>
      <point x="459" y="1047" type="line" name="hr02"/>
      <point x="220" y="1047" type="line"/>
    </contour>
    <contour>
      <point x="1012" y="0" type="move" name="btm"/>
    </contour>
    <contour>
      <point x="1012" y="1530" type="move" name="top"/>
    </contour>
  </outline>
</glyph>
<glyph name="w" format="1">
  <advance width="1805"/>
  <unicode hex="0077"/>
  <outline>
    <contour>
      <point x="180" y="254" type="line" smooth="yes" name="hr00"/>
      <point x="180" y="114"/>
      <point x="266" y="0"/>
      <point x="371" y="0" type="curve" smooth="yes"/>
      <point x="730" y="0" type="line" smooth="yes"/>
      <point x="795" y="0"/>
      <point x="858" y="48"/>
      <point x="896" y="124" type="curve"/>
      <point x="934" y="48"/>
      <point x="997" y="0"/>
      <point x="1062" y="0" type="curve" smooth="yes"/>
      <point x="1427" y="0" type="line" smooth="yes"/>
      <point x="1532" y="0"/>
      <point x="1618" y="114"/>
      <point x="1618" y="254" type="curve" smooth="yes"/>
      <point x="1618" y="876" type="line"/>
      <point x="1647" y="876" type="line" smooth="yes"/>
      <point x="1735" y="876"/>
      <point x="1812" y="953"/>
      <point x="1822" y="1047" type="curve"/>
      <point x="1379" y="1047" type="line"/>
      <point x="1379" y="172" type="line"/>
      <point x="1019" y="172" type="line"/>
      <point x="1019" y="1047" type="line"/>
      <point x="779" y="1047" type="line"/>
      <point x="779" y="172" type="line"/>
      <point x="419" y="172" type="line"/>
      <point x="419" y="1047" type="line"/>
      <point x="180" y="1047" type="line"/>
    </contour>
    <contour>
      <point x="897" y="1530" type="move" name="top"/>
    </contour>
    <contour>
      <point x="1001" y="0" type="move" name="btm"/>
    </contour>
  </outline>
</glyph>
<glyph name="x" format="1">
  <advance width="1103"/>
  <unicode hex="0078"/>
  <outline>
    <contour>
      <point x="15" y="0" type="line" name="hr00"/>
      <point x="269" y="0" type="line"/>
      <point x="564" y="390" type="line"/>
      <point x="859" y="0" type="line"/>
      <point x="970" y="0" type="line" smooth="yes"/>
      <point x="1056" y="0"/>
      <point x="1130" y="79"/>
      <point x="1140" y="171" type="curve"/>
      <point x="998" y="171" type="line"/>
      <point x="690" y="558" type="line"/>
      <point x="1060" y="1047" type="line"/>
      <point x="826" y="1047" type="line"/>
      <point x="567" y="713" type="line"/>
      <point x="302" y="1047" type="line"/>
      <point x="68" y="1047" type="line"/>
      <point x="442" y="551" type="line"/>
    </contour>
    <contour>
      <point x="577" y="0" type="move" name="btm"/>
    </contour>
    <contour>
      <point x="577" y="1530" type="move" name="top"/>
    </contour>
  </outline>
</glyph>
<glyph name="y" format="1">
  <advance width="1275"/>
  <unicode hex="0079"/>
  <outline>
    <contour>
      <point x="192" y="254" type="line" smooth="yes" name="hr00"/>
      <point x="192" y="114"/>
      <point x="277" y="0"/>
      <point x="382" y="0" type="curve" smooth="yes"/>
      <point x="683" y="0" type="line" smooth="yes"/>
      <point x="746" y="0"/>
      <point x="807" y="41"/>
      <point x="843" y="107" type="curve"/>
      <point x="843" y="-368" type="line"/>
      <point x="408" y="-368" type="line"/>
      <point x="408" y="-541" type="line"/>
      <point x="892" y="-541" type="line" smooth="yes"/>
      <point x="996" y="-541"/>
      <point x="1082" y="-425"/>
      <point x="1082" y="-285" type="curve" smooth="yes"/>
      <point x="1082" y="0" type="line"/>
      <point x="1109" y="0" type="line" smooth="yes"/>
      <point x="1197" y="0"/>
      <point x="1274" y="77"/>
      <point x="1284" y="171" type="curve"/>
      <point x="1082" y="171" type="line"/>
      <point x="1082" y="1047" type="line"/>
      <point x="843" y="1047" type="line"/>
      <point x="843" y="171" type="line"/>
      <point x="431" y="171" type="line"/>
      <point x="431" y="1047" type="line"/>
      <point x="192" y="1047" type="line"/>
    </contour>
    <contour>
      <point x="636" y="1530" type="move" name="top"/>
    </contour>
    <contour>
      <point x="738" y="0" type="move" name="btm"/>
    </contour>
  </outline>
</glyph>
<glyph name="braceleft" format="1">
  <advance width="1225"/>
  <unicode hex="007B"/>
  <outline>
    <contour>
      <point x="466" y="129" type="line" smooth="yes" name="hr00"/>
      <point x="466" y="-176"/>
      <point x="710" y="-371"/>
      <point x="1025" y="-391" type="curve"/>
      <point x="1025" y="-245" type="line"/>
      <point x="841" y="-227"/>
      <point x="695" y="-121"/>
      <point x="695" y="21" type="curve" smooth="yes"/>
      <point x="695" y="435" type="line" smooth="yes"/>
      <point x="695" y="541"/>
      <point x="607" y="643"/>
      <point x="481" y="692" type="curve"/>
      <point x="604" y="746"/>
      <point x="695" y="843"/>
      <point x="695" y="950" type="curve" smooth="yes"/>
      <point x="695" y="1358" type="line" smooth="yes"/>
      <point x="695" y="1504"/>
      <point x="841" y="1615"/>
      <point x="1025" y="1632" type="curve"/>
      <point x="1025" y="1778" type="line"/>
      <point x="715" y="1755"/>
      <point x="466" y="1555"/>
      <point x="466" y="1249" type="curve" smooth="yes"/>
      <point x="466" y="933" type="line" smooth="yes"/>
      <point x="466" y="811"/>
      <point x="396" y="755"/>
      <point x="290" y="743" type="curve"/>
      <point x="290" y="644" type="line"/>
      <point x="392" y="629"/>
      <point x="466" y="575"/>
      <point x="466" y="466" type="curve" smooth="yes"/>
    </contour>
  </outline>
</glyph>
<glyph name="braceright" format="1">
  <advance width="1225"/>
  <unicode hex="007D"/>
  <outline>
    <contour>
      <point x="200" y="-245" type="curve" name="hr00"/>
      <point x="200" y="-391" type="line"/>
      <point x="510" y="-367"/>
      <point x="759" y="-172"/>
      <point x="759" y="129" type="curve" smooth="yes"/>
      <point x="759" y="466" type="line" smooth="yes"/>
      <point x="759" y="575"/>
      <point x="833" y="629"/>
      <point x="935" y="644" type="curve"/>
      <point x="935" y="743" type="line"/>
      <point x="829" y="755"/>
      <point x="759" y="811"/>
      <point x="759" y="933" type="curve" smooth="yes"/>
      <point x="759" y="1249" type="line" smooth="yes"/>
      <point x="759" y="1559"/>
      <point x="514" y="1759"/>
      <point x="200" y="1778" type="curve"/>
      <point x="200" y="1632" type="line"/>
      <point x="384" y="1615"/>
      <point x="530" y="1504"/>
      <point x="530" y="1358" type="curve" smooth="yes"/>
      <point x="530" y="950" type="line" smooth="yes"/>
      <point x="530" y="843"/>
      <point x="622" y="746"/>
      <point x="744" y="692" type="curve"/>
      <point x="621" y="643"/>
      <point x="530" y="541"/>
      <point x="530" y="435" type="curve" smooth="yes"/>
      <point x="530" y="21" type="line" smooth="yes"/>
      <point x="530" y="-121"/>
      <point x="384" y="-227"/>
    </contour>
  </outline>
</glyph>
<glyph name="asciitilde" format="1">
  <advance width="1285"/>
  <unicode hex="007E"/>
  <outline>
    <contour>
      <point x="98" y="417" type="line" name="hr01"/>
      <point x="242" y="417" type="line"/>
      <point x="311" y="533" type="line" name="hr02"/>
      <point x="458" y="533" type="line"/>
      <point x="519" y="429"/>
      <point x="642" y="354"/>
      <point x="780" y="354" type="curve" smooth="yes" name="hr03"/>
      <point x="941" y="353"/>
      <point x="1086" y="439"/>
      <point x="1120" y="568" type="curve" smooth="yes"/>
      <point x="1147" y="670" type="line"/>
      <point x="1003" y="670" type="line"/>
      <point x="935" y="554" type="line"/>
      <point x="778" y="554" type="line"/>
      <point x="719" y="659"/>
      <point x="598" y="732"/>
      <point x="468" y="733" type="curve" smooth="yes" name="hr04"/>
      <point x="304" y="734"/>
      <point x="164" y="643"/>
      <point x="128" y="519" type="curve" smooth="yes"/>
    </contour>
  </outline>
</glyph>
<glyph name="exclamdown" format="1">
  <advance width="775"/>
  <unicode hex="00A1"/>
  <outline>
    <contour>
      <point x="387" y="1206" type="curve" smooth="yes" name="hr00"/>
      <point x="479" y="1206"/>
      <point x="556" y="1281"/>
      <point x="556" y="1374" type="curve" smooth="yes"/>
      <point x="556" y="1467"/>
      <point x="480" y="1543"/>
      <point x="387" y="1543" type="curve" smooth="yes"/>
      <point x="294" y="1543"/>
      <point x="219" y="1467"/>
      <point x="219" y="1374" type="curve"/>
      <point x="219" y="1281"/>
      <point x="294" y="1206"/>
    </contour>
    <contour>
      <point x="222" y="178" type="curve" smooth="yes"/>
      <point x="222" y="74"/>
      <point x="292" y="-11"/>
      <point x="382" y="-11" type="curve" smooth="yes"/>
      <point x="474" y="-11"/>
      <point x="546" y="73"/>
      <point x="546" y="176" type="curve" smooth="yes"/>
      <point x="546" y="202"/>
      <point x="544" y="229"/>
      <point x="541" y="253" type="curve" smooth="yes"/>
      <point x="440" y="1027" type="line"/>
      <point x="325" y="1027" type="line"/>
      <point x="228" y="250" type="line"/>
      <point x="226" y="232"/>
      <point x="222" y="203"/>
    </contour>
  </outline>
</glyph>
<glyph name="yen" format="1">
  <advance width="1385"/>
  <unicode hex="00A5"/>
  <outline>
    <contour>
      <point x="246" y="294" type="curve" name="hr00"/>
      <point x="611" y="294" type="line"/>
      <point x="611" y="0" type="line"/>
      <point x="850" y="0" type="line"/>
      <point x="850" y="294" type="line"/>
      <point x="1060" y="294" type="line" smooth="yes"/>
      <point x="1148" y="294"/>
      <point x="1235" y="369"/>
      <point x="1235" y="465" type="curve"/>
      <point x="850" y="465" type="line"/>
      <point x="850" y="670" type="line"/>
      <point x="1060" y="670" type="line" smooth="yes"/>
      <point x="1148" y="670"/>
      <point x="1235" y="745"/>
      <point x="1235" y="841" type="curve"/>
      <point x="938" y="841" type="line"/>
      <point x="1273" y="1350" type="line"/>
      <point x="1017" y="1350" type="line"/>
      <point x="733" y="898" type="line"/>
      <point x="447" y="1350" type="line"/>
      <point x="192" y="1350" type="line"/>
      <point x="525" y="841" type="line"/>
      <point x="421" y="841" type="line" smooth="yes"/>
      <point x="331" y="841"/>
      <point x="255" y="762"/>
      <point x="246" y="670" type="curve"/>
      <point x="611" y="670" type="line"/>
      <point x="611" y="465" type="line"/>
      <point x="421" y="465" type="line" smooth="yes"/>
      <point x="331" y="465"/>
      <point x="255" y="386"/>
    </contour>
  </outline>
</glyph>
<glyph name="section" format="1">
  <advance width="1285"/>
  <unicode hex="00A7"/>
  <outline>
    <contour>
      <point x="227" y="-16" type="line" name="hr01"/>
      <point x="227" y="-123" type="line" smooth="yes"/>
      <point x="227" y="-265"/>
      <point x="292" y="-377"/>
      <point x="395" y="-377" type="curve" smooth="yes"/>
      <point x="931" y="-377" type="line" smooth="yes"/>
      <point x="1034" y="-377"/>
      <point x="1118" y="-265"/>
      <point x="1118" y="-123" type="curve" smooth="yes"/>
      <point x="1118" y="-46" type="line" smooth="yes"/>
      <point x="1118" y="75"/>
      <point x="1066" y="157"/>
      <point x="986" y="197" type="curve" smooth="yes"/>
      <point x="800" y="276" type="line"/>
      <point x="874" y="276" type="line" smooth="yes"/>
      <point x="978" y="276"/>
      <point x="1062" y="389"/>
      <point x="1062" y="528" type="curve" smooth="yes" name="hr02"/>
      <point x="1062" y="727" type="line" smooth="yes"/>
      <point x="1062" y="835"/>
      <point x="1017" y="925"/>
      <point x="948" y="961" type="curve" smooth="yes"/>
      <point x="436" y="1213" type="line"/>
      <point x="436" y="1420" type="line"/>
      <point x="899" y="1420" type="line" name="hr03"/>
      <point x="899" y="1230" type="line"/>
      <point x="1118" y="1230" type="line"/>
      <point x="1118" y="1337" type="line" smooth="yes"/>
      <point x="1118" y="1479"/>
      <point x="1053" y="1591"/>
      <point x="950" y="1591" type="curve" smooth="yes"/>
      <point x="414" y="1591" type="line" smooth="yes"/>
      <point x="311" y="1591"/>
      <point x="227" y="1479"/>
      <point x="227" y="1337" type="curve" smooth="yes"/>
      <point x="227" y="1260" type="line" smooth="yes"/>
      <point x="227" y="1139"/>
      <point x="279" y="1057"/>
      <point x="359" y="1017" type="curve" smooth="yes"/>
      <point x="554" y="938" type="line"/>
      <point x="471" y="938" type="line" smooth="yes"/>
      <point x="367" y="938"/>
      <point x="283" y="825"/>
      <point x="283" y="686" type="curve" smooth="yes" name="hr04"/>
      <point x="283" y="487" type="line" smooth="yes"/>
      <point x="283" y="379"/>
      <point x="328" y="289"/>
      <point x="397" y="253" type="curve" smooth="yes"/>
      <point x="909" y="1" type="line"/>
      <point x="909" y="-206" type="line"/>
      <point x="436" y="-206" type="line" name="hr05"/>
      <point x="436" y="-16" type="line"/>
    </contour>
    <contour>
      <point x="507" y="431" type="line" name="hr06"/>
      <point x="507" y="783" type="line"/>
      <point x="838" y="783" type="line"/>
      <point x="838" y="431" type="line"/>
    </contour>
  </outline>
</glyph>
<glyph name="copyright" format="1">
  <advance width="2052"/>
  <unicode hex="00A9"/>
  <outline>
    <contour>
      <point x="250" y="235" type="line" smooth="yes" name="hr00"/>
      <point x="250" y="106"/>
      <point x="347" y="0"/>
      <point x="463" y="0" type="curve" smooth="yes"/>
      <point x="1589" y="0" type="line" smooth="yes"/>
      <point x="1705" y="0"/>
      <point x="1802" y="106"/>
      <point x="1802" y="235" type="curve" smooth="yes"/>
      <point x="1802" y="1282" type="line" smooth="yes"/>
      <point x="1802" y="1412"/>
      <point x="1705" y="1516"/>
      <point x="1589" y="1516" type="curve" smooth="yes"/>
      <point x="463" y="1516" type="line" smooth="yes"/>
      <point x="347" y="1516"/>
      <point x="250" y="1412"/>
      <point x="250" y="1282" type="curve"/>
    </contour>
    <contour>
      <point x="433" y="140" type="line"/>
      <point x="433" y="1379" type="line"/>
      <point x="1619" y="1379" type="line"/>
      <point x="1619" y="140" type="line"/>
    </contour>
    <contour>
      <point x="636" y="564" type="line" smooth="yes"/>
      <point x="636" y="431"/>
      <point x="717" y="323"/>
      <point x="817" y="323" type="curve" smooth="yes"/>
      <point x="1247" y="323" type="line" smooth="yes"/>
      <point x="1345" y="323"/>
      <point x="1427" y="431"/>
      <point x="1427" y="564" type="curve" smooth="yes"/>
      <point x="1427" y="609" type="line"/>
      <point x="1201" y="609" type="line"/>
      <point x="1201" y="486" type="line"/>
      <point x="863" y="486" type="line"/>
      <point x="863" y="1039" type="line"/>
      <point x="1201" y="1039" type="line"/>
      <point x="1201" y="834" type="line"/>
      <point x="1427" y="834" type="line"/>
      <point x="1427" y="959" type="line" smooth="yes"/>
      <point x="1427" y="1095"/>
      <point x="1344" y="1202"/>
      <point x="1246" y="1202" type="curve" smooth="yes"/>
      <point x="817" y="1202" type="line" smooth="yes"/>
      <point x="717" y="1202"/>
      <point x="636" y="1095"/>
      <point x="636" y="959" type="curve" smooth="yes"/>
    </contour>
  </outline>
</glyph>
<glyph name="registered" format="1">
  <advance width="2052"/>
  <unicode hex="00AE"/>
  <outline>
    <contour>
      <point x="250" y="235" type="line" smooth="yes" name="hr01"/>
      <point x="250" y="106"/>
      <point x="347" y="0"/>
      <point x="463" y="0" type="curve" smooth="yes"/>
      <point x="1589" y="0" type="line" smooth="yes"/>
      <point x="1705" y="0"/>
      <point x="1802" y="106"/>
      <point x="1802" y="235" type="curve" smooth="yes"/>
      <point x="1802" y="1282" type="line" smooth="yes"/>
      <point x="1802" y="1412"/>
      <point x="1705" y="1516"/>
      <point x="1589" y="1516" type="curve" smooth="yes"/>
      <point x="463" y="1516" type="line" smooth="yes"/>
      <point x="347" y="1516"/>
      <point x="250" y="1412"/>
      <point x="250" y="1282" type="curve" smooth="yes"/>
    </contour>
    <contour>
      <point x="433" y="140" type="line"/>
      <point x="433" y="1379" type="line"/>
      <point x="1619" y="1379" type="line"/>
      <point x="1619" y="140" type="line"/>
    </contour>
    <contour>
      <point x="637" y="323" type="line"/>
      <point x="862" y="323" type="line"/>
      <point x="863" y="633" type="line"/>
      <point x="1200" y="633" type="line"/>
      <point x="1200" y="323" type="line"/>
      <point x="1429" y="323" type="line"/>
      <point x="1429" y="489" type="line" smooth="yes"/>
      <point x="1429" y="564"/>
      <point x="1388" y="659"/>
      <point x="1298" y="703" type="curve"/>
      <point x="1380" y="744"/>
      <point x="1426" y="823"/>
      <point x="1426" y="914" type="curve" smooth="yes" name="hr02"/>
      <point x="1426" y="978" type="line" smooth="yes"/>
      <point x="1426" y="1102"/>
      <point x="1332" y="1201"/>
      <point x="1231" y="1201" type="curve" smooth="yes"/>
      <point x="637" y="1201" type="line"/>
    </contour>
    <contour>
      <point x="863" y="776" type="line"/>
      <point x="863" y="1038" type="line"/>
      <point x="1201" y="1038" type="line"/>
      <point x="1201" y="776" type="line"/>
    </contour>
  </outline>
</glyph>
<glyph name="macron" format="1">
  <advance width="1202"/>
  <unicode hex="00AF"/>
  <outline>
    <contour>
      <point x="150" y="1359" type="curve" name="hr00"/>
      <point x="878" y="1359" type="line"/>
      <point x="967" y="1359"/>
      <point x="1043" y="1436"/>
      <point x="1052" y="1530" type="curve"/>
      <point x="325" y="1530" type="line"/>
      <point x="236" y="1530"/>
      <point x="160" y="1452"/>
    </contour>
    <contour>
      <point x="591" y="1530" type="move" name="_top"/>
    </contour>
  </outline>
</glyph>
<glyph name="acute" format="1">
  <advance width="909"/>
  <unicode hex="00B4"/>
  <outline>
    <contour>
      <point x="211" y="1310" type="line" name="hr00"/>
      <point x="635" y="1423" type="line" smooth="yes"/>
      <point x="705" y="1442"/>
      <point x="759" y="1506"/>
      <point x="759" y="1577" type="curve" smooth="yes"/>
      <point x="759" y="1596"/>
      <point x="755" y="1616"/>
      <point x="746" y="1636" type="curve" smooth="yes"/>
      <point x="721" y="1691"/>
      <point x="675" y="1722"/>
      <point x="624" y="1722" type="curve" smooth="yes"/>
      <point x="594" y="1722"/>
      <point x="562" y="1711"/>
      <point x="531" y="1689" type="curve" smooth="yes"/>
      <point x="150" y="1415" type="line"/>
    </contour>
    <contour>
      <point x="361" y="1530" type="move" name="_top"/>
    </contour>
  </outline>
</glyph>
<glyph name="one.superior" format="1">
  <advance width="602"/>
  <unicode hex="00B9"/>
  <outline>
    <contour>
      <point x="211" y="454" type="line" name="hr00"/>
      <point x="423" y="454" type="line"/>
      <point x="423" y="1249" type="line"/>
      <point x="79" y="1249" type="line"/>
      <point x="79" y="1151" type="line"/>
      <point x="211" y="1151" type="line"/>
    </contour>
  </outline>
</glyph>
<glyph name="onequarter" format="1">
  <advance width="1947"/>
  <unicode hex="00BC"/>
  <outline>
    <contour>
      <point x="490" y="-59" type="curve" name="hr01"/>
      <point x="661" y="-59" type="line"/>
      <point x="1187" y="1311" type="line"/>
      <point x="1015" y="1311" type="line"/>
      <point x="838" y="850"/>
      <point x="667" y="404"/>
    </contour>
    <contour>
      <point x="265" y="454" type="line"/>
      <point x="476" y="454" type="line"/>
      <point x="476" y="1249" type="line"/>
      <point x="133" y="1249" type="line"/>
      <point x="133" y="1151" type="line"/>
      <point x="265" y="1151" type="line"/>
    </contour>
    <contour>
      <point x="1074" y="132" type="line"/>
      <point x="1551" y="132" type="line"/>
      <point x="1551" y="-1" type="line" name="hr02"/>
      <point x="1754" y="-1" type="line"/>
      <point x="1754" y="132" type="line" name="hr03"/>
      <point x="1837" y="132" type="line"/>
      <point x="1837" y="238" type="line"/>
      <point x="1754" y="238" type="line"/>
      <point x="1754" y="627" type="line"/>
      <point x="1551" y="627" type="line"/>
      <point x="1551" y="238" type="line"/>
      <point x="1275" y="238" type="line"/>
      <point x="1493" y="797" type="line"/>
      <point x="1284" y="797" type="line"/>
      <point x="1074" y="244" type="line"/>
    </contour>
  </outline>
</glyph>
<glyph name="onehalf" format="1">
  <advance width="2065"/>
  <unicode hex="00BD"/>
  <outline>
    <contour>
      <point x="489" y="-59" type="curve"/>
      <point x="660" y="-59" type="line"/>
      <point x="1186" y="1311" type="line"/>
      <point x="1015" y="1311" type="line"/>
      <point x="838" y="850"/>
      <point x="666" y="404"/>
    </contour>
    <contour>
      <point x="264" y="454" type="line"/>
      <point x="476" y="454" type="line"/>
      <point x="476" y="1249" type="line"/>
      <point x="132" y="1249" type="line"/>
      <point x="132" y="1151" type="line"/>
      <point x="264" y="1151" type="line"/>
    </contour>
    <contour>
      <point x="1203" y="0" type="line" name="hr01"/>
      <point x="1945" y="0" type="line"/>
      <point x="1945" y="108" type="line"/>
      <point x="1425" y="108" type="line"/>
      <point x="1425" y="223" type="line"/>
      <point x="1856" y="392" type="line"/>
      <point x="1908" y="413"/>
      <point x="1945" y="470"/>
      <point x="1945" y="537" type="curve"/>
      <point x="1945" y="637" type="line" smooth="yes"/>
      <point x="1945" y="726"/>
      <point x="1878" y="796"/>
      <point x="1796" y="796" type="curve" smooth="yes"/>
      <point x="1351" y="796" type="line"/>
      <point x="1268" y="796"/>
      <point x="1203" y="726"/>
      <point x="1203" y="637" type="curve" smooth="yes"/>
      <point x="1203" y="566" type="line"/>
      <point x="1425" y="566" type="line"/>
      <point x="1425" y="687" type="line"/>
      <point x="1723" y="687" type="line"/>
      <point x="1723" y="521" type="line"/>
      <point x="1282" y="351" type="line" smooth="yes"/>
      <point x="1234" y="332"/>
      <point x="1203" y="274"/>
      <point x="1203" y="207" type="curve"/>
    </contour>
  </outline>
</glyph>
<glyph name="threequarters" format="1">
  <advance width="2207"/>
  <unicode hex="00BE"/>
  <outline>
    <contour>
      <point x="751" y="-59" type="line" name="hr01"/>
      <point x="922" y="-59" type="line"/>
      <point x="1447" y="1311" type="line"/>
      <point x="1275" y="1311" type="line"/>
    </contour>
    <contour>
      <point x="281" y="454" type="curve"/>
      <point x="704" y="454" type="line"/>
      <point x="786" y="454"/>
      <point x="853" y="526"/>
      <point x="853" y="614" type="curve" name="hr02"/>
      <point x="853" y="702" type="line"/>
      <point x="853" y="771"/>
      <point x="799" y="834"/>
      <point x="722" y="863" type="curve" name="hr03"/>
      <point x="799" y="893"/>
      <point x="853" y="957"/>
      <point x="853" y="1026" type="curve"/>
      <point x="853" y="1090" type="line"/>
      <point x="853" y="1179"/>
      <point x="786" y="1249"/>
      <point x="704" y="1249" type="curve"/>
      <point x="281" y="1250" type="line"/>
      <point x="199" y="1250"/>
      <point x="133" y="1180"/>
      <point x="133" y="1091" type="curve"/>
      <point x="133" y="1044" type="line"/>
      <point x="344" y="1044" type="line"/>
      <point x="344" y="1141" type="line"/>
      <point x="641" y="1141" type="line"/>
      <point x="641" y="915" type="line"/>
      <point x="418" y="915" type="line" name="hr04"/>
      <point x="418" y="807" type="line"/>
      <point x="641" y="807" type="line"/>
      <point x="641" y="564" type="line"/>
      <point x="344" y="564" type="line"/>
      <point x="344" y="661" type="line"/>
      <point x="133" y="661" type="line"/>
      <point x="133" y="614" type="line"/>
      <point x="133" y="526"/>
      <point x="199" y="454"/>
    </contour>
    <contour>
      <point x="1334" y="133" type="line"/>
      <point x="1811" y="133" type="line"/>
      <point x="1811" y="0" type="line"/>
      <point x="2014" y="0" type="line"/>
      <point x="2014" y="133" type="line"/>
      <point x="2097" y="133" type="line"/>
      <point x="2097" y="239" type="line"/>
      <point x="2014" y="239" type="line"/>
      <point x="2014" y="628" type="line"/>
      <point x="1811" y="628" type="line"/>
      <point x="1811" y="239" type="line"/>
      <point x="1535" y="239" type="line"/>
      <point x="1753" y="798" type="line"/>
      <point x="1544" y="798" type="line"/>
      <point x="1334" y="245" type="line"/>
    </contour>
  </outline>
</glyph>
<glyph name="Atilde" format="1">
  <advance width="1327"/>
  <unicode hex="00C3"/>
  <outline>
    <contour>
      <point x="296" y="1731" type="curve" name="hr01"/>
      <point x="419" y="1731" type="line"/>
      <point x="468" y="1830" type="line"/>
      <point x="551" y="1830" type="line"/>
      <point x="599" y="1742"/>
      <point x="697" y="1678"/>
      <point x="807" y="1678" type="curve" smooth="yes" name="hr02"/>
      <point x="935" y="1677"/>
      <point x="1052" y="1750"/>
      <point x="1078" y="1860" type="curve" smooth="yes"/>
      <point x="1085" y="1885"/>
      <point x="1093" y="1946"/>
      <point x="1093" y="1946" type="curve"/>
      <point x="970" y="1946" type="line"/>
      <point x="922" y="1847" type="line"/>
      <point x="831" y="1847" type="line"/>
      <point x="784" y="1936"/>
      <point x="688" y="1999"/>
      <point x="584" y="1999" type="curve" smooth="yes" name="hr03"/>
      <point x="454" y="1999"/>
      <point x="335" y="1924"/>
      <point x="313" y="1817" type="curve" smooth="yes"/>
      <point x="306" y="1784"/>
      <point x="302" y="1765"/>
    </contour>
    <component base="A"/>
  </outline>
</glyph>
<glyph name="multiply" format="1">
  <advance width="1285"/>
  <unicode hex="00D7"/>
  <outline>
    <contour>
      <point x="250" y="227" type="line" name="hr00"/>
      <point x="379" y="96" type="line"/>
      <point x="675" y="395" type="line"/>
      <point x="972" y="96" type="line"/>
      <point x="1101" y="228" type="line"/>
      <point x="1003" y="324"/>
      <point x="897" y="430"/>
      <point x="801" y="525" type="curve"/>
      <point x="1098" y="820" type="line"/>
      <point x="1052" y="867"/>
      <point x="1021" y="896"/>
      <point x="972" y="945" type="curve"/>
      <point x="677" y="648" type="line"/>
      <point x="383" y="947" type="line"/>
      <point x="254" y="818" type="line"/>
      <point x="551" y="522" type="line"/>
    </contour>
  </outline>
</glyph>
<glyph name="Oslash" format="1">
  <advance width="1359"/>
  <unicode hex="00D8"/>
  <outline>
    <contour>
      <point x="157" y="-177" type="line" name="hr00"/>
      <point x="308" y="-177" type="line"/>
      <point x="391" y="0" type="line"/>
      <point x="968" y="0" type="line" smooth="yes"/>
      <point x="1072" y="0"/>
      <point x="1158" y="113"/>
      <point x="1158" y="252" type="curve" smooth="yes"/>
      <point x="1159" y="1262" type="line" smooth="yes"/>
      <point x="1159" y="1346"/>
      <point x="1128" y="1420"/>
      <point x="1081" y="1466" type="curve"/>
      <point x="1199" y="1717" type="line"/>
      <point x="1038" y="1717" type="line"/>
      <point x="944" y="1516" type="line"/>
      <point x="388" y="1516" type="line" smooth="yes"/>
      <point x="285" y="1516"/>
      <point x="200" y="1404"/>
      <point x="200" y="1262" type="curve" smooth="yes"/>
      <point x="200" y="252" type="line" smooth="yes"/>
      <point x="200" y="175"/>
      <point x="226" y="106"/>
      <point x="267" y="59" type="curve"/>
    </contour>
    <contour>
      <point x="439" y="429" type="line"/>
      <point x="439" y="1347" type="line"/>
      <point x="866" y="1347" type="line"/>
    </contour>
    <contour>
      <point x="472" y="171" type="line"/>
      <point x="920" y="1123" type="line"/>
      <point x="920" y="171" type="line"/>
    </contour>
  </outline>
</glyph>
<glyph name="Thorn" format="1">
  <advance width="1345"/>
  <unicode hex="00DE"/>
  <outline>
    <contour>
      <point x="231" y="0" type="line" name="hr00"/>
      <point x="471" y="0" type="line"/>
      <point x="471" y="307" type="line"/>
      <point x="1015" y="307" type="line" smooth="yes"/>
      <point x="1119" y="307"/>
      <point x="1205" y="419"/>
      <point x="1205" y="559" type="curve" smooth="yes"/>
      <point x="1205" y="1002" type="line" smooth="yes"/>
      <point x="1205" y="1144"/>
      <point x="1119" y="1256"/>
      <point x="1015" y="1256" type="curve" smooth="yes"/>
      <point x="469" y="1256" type="line"/>
      <point x="469" y="1516" type="line"/>
      <point x="230" y="1516" type="line"/>
      <point x="230" y="478" type="line"/>
      <point x="118" y="478" type="line" smooth="yes"/>
      <point x="30" y="478"/>
      <point x="-47" y="401"/>
      <point x="-57" y="307" type="curve"/>
      <point x="231" y="307" type="line"/>
    </contour>
    <contour>
      <point x="470" y="478" type="line"/>
      <point x="470" y="1087" type="line"/>
      <point x="972" y="1087" type="line"/>
      <point x="972" y="478" type="line"/>
    </contour>
  </outline>
</glyph>
<glyph name="eth" format="1">
  <advance width="1275"/>
  <unicode hex="00F0"/>
  <outline>
    <contour>
      <point x="192" y="252" type="line" smooth="yes" name="hr00"/>
      <point x="192" y="113"/>
      <point x="277" y="0"/>
      <point x="380" y="0" type="curve" smooth="yes"/>
      <point x="903" y="0" type="line" smooth="yes"/>
      <point x="1007" y="0"/>
      <point x="1093" y="113"/>
      <point x="1093" y="252" type="curve" smooth="yes"/>
      <point x="1094" y="758" type="line" smooth="yes"/>
      <point x="1094" y="826"/>
      <point x="1074" y="887"/>
      <point x="1042" y="933" type="curve" smooth="yes"/>
      <point x="746" y="1321" type="line"/>
      <point x="1041" y="1421" type="line"/>
      <point x="986" y="1563" type="line"/>
      <point x="652" y="1450" type="line"/>
      <point x="461" y="1681" type="line"/>
      <point x="290" y="1593" type="line"/>
      <point x="466" y="1373" type="line"/>
      <point x="218" y="1294" type="line"/>
      <point x="273" y="1152" type="line"/>
      <point x="542" y="1245" type="line"/>
      <point x="769" y="960" type="line"/>
      <point x="380" y="960" type="line" smooth="yes"/>
      <point x="277" y="960"/>
      <point x="192" y="848"/>
      <point x="192" y="706" type="curve" smooth="yes"/>
    </contour>
    <contour>
      <point x="421" y="171" type="line"/>
      <point x="421" y="789" type="line"/>
      <point x="865" y="789" type="line"/>
      <point x="865" y="171" type="line"/>
    </contour>
  </outline>
</glyph>
<glyph name="divide" format="1">
  <advance width="1285"/>
  <unicode hex="00F7"/>
  <outline>
    <contour>
      <point x="686" y="762" type="curve" smooth="yes" name="hr00"/>
      <point x="759" y="762"/>
      <point x="822" y="825"/>
      <point x="822" y="906" type="curve" smooth="yes"/>
      <point x="822" y="987"/>
      <point x="759" y="1050"/>
      <point x="686" y="1050" type="curve" smooth="yes"/>
      <point x="609" y="1050"/>
      <point x="553" y="987"/>
      <point x="553" y="906" type="curve" smooth="yes"/>
      <point x="553" y="825"/>
      <point x="609" y="762"/>
    </contour>
    <contour>
      <point x="250" y="431" type="line"/>
      <point x="1124" y="431" type="line"/>
      <point x="1124" y="607" type="line"/>
      <point x="250" y="607" type="line"/>
    </contour>
    <contour>
      <point x="553" y="129" type="curve" smooth="yes"/>
      <point x="553" y="47"/>
      <point x="609" y="-14"/>
      <point x="686" y="-14" type="curve" smooth="yes"/>
      <point x="759" y="-14"/>
      <point x="822" y="47"/>
      <point x="822" y="129" type="curve" smooth="yes"/>
      <point x="822" y="211"/>
      <point x="759" y="275"/>
      <point x="686" y="275" type="curve" smooth="yes"/>
      <point x="609" y="275"/>
      <point x="553" y="211"/>
    </contour>
  </outline>
</glyph>
<glyph name="thorn" format="1">
  <advance width="1286"/>
  <unicode hex="00FE"/>
  <outline>
    <contour>
      <point x="430" y="112" type="line" name="hr01"/>
      <point x="469" y="44"/>
      <point x="527" y="0"/>
      <point x="591" y="0" type="curve" smooth="yes" name="hr02"/>
      <point x="1129" y="0" type="line" smooth="yes"/>
      <point x="1217" y="0"/>
      <point x="1294" y="77"/>
      <point x="1304" y="171" type="curve"/>
      <point x="1093" y="171" type="line"/>
      <point x="1093" y="793" type="line" smooth="yes"/>
      <point x="1093" y="934"/>
      <point x="1007" y="1047"/>
      <point x="904" y="1047" type="curve" smooth="yes"/>
      <point x="431" y="1047" type="line"/>
      <point x="431" y="1591" type="line"/>
      <point x="192" y="1591" type="line"/>
      <point x="192" y="-541" type="line"/>
      <point x="244" y="-541" type="line" smooth="yes"/>
      <point x="348" y="-541"/>
      <point x="431" y="-425"/>
      <point x="431" y="-285" type="curve" smooth="yes"/>
    </contour>
    <contour>
      <point x="430" y="171" type="line"/>
      <point x="430" y="876" type="line"/>
      <point x="854" y="876" type="line"/>
      <point x="854" y="171" type="line"/>
    </contour>
  </outline>
</glyph>
<glyph name="Dcroat" format="1">
  <advance width="1387"/>
  <unicode hex="0110"/>
  <outline>
    <contour>
      <point x="245" y="0" type="line" name="hr00"/>
      <point x="994" y="0" type="line" smooth="yes"/>
      <point x="1099" y="0"/>
      <point x="1183" y="113"/>
      <point x="1183" y="252" type="curve" smooth="yes"/>
      <point x="1183" y="1262" type="line" smooth="yes"/>
      <point x="1183" y="1404"/>
      <point x="1098" y="1516"/>
      <point x="993" y="1516" type="curve" smooth="yes"/>
      <point x="225" y="1516" type="line" smooth="yes"/>
      <point x="135" y="1516"/>
      <point x="59" y="1441"/>
      <point x="50" y="1347" type="curve"/>
      <point x="944" y="1347" type="line"/>
      <point x="944" y="171" type="line"/>
      <point x="483" y="171" type="line"/>
      <point x="483" y="549" type="line"/>
      <point x="724" y="549" type="line"/>
      <point x="724" y="703" type="line"/>
      <point x="483" y="703" type="line"/>
      <point x="483" y="1234" type="line"/>
      <point x="438" y="1234" type="line" smooth="yes"/>
      <point x="332" y="1234"/>
      <point x="244" y="1120"/>
      <point x="244" y="982" type="curve" smooth="yes"/>
      <point x="244" y="703" type="line"/>
      <point x="51" y="703" type="line"/>
      <point x="51" y="549" type="line"/>
      <point x="244" y="549" type="line"/>
    </contour>
  </outline>
</glyph>
<glyph name="dcroat" format="1">
  <advance width="1275"/>
  <unicode hex="0111"/>
  <outline>
    <contour>
      <point x="538" y="1208" type="line" name="hr00"/>
      <point x="844" y="1208" type="line"/>
      <point x="844" y="1047" type="line"/>
      <point x="382" y="1047" type="line" smooth="yes"/>
      <point x="277" y="1047"/>
      <point x="192" y="934"/>
      <point x="192" y="793" type="curve" smooth="yes"/>
      <point x="192" y="254" type="line" smooth="yes"/>
      <point x="192" y="114"/>
      <point x="277" y="0"/>
      <point x="382" y="0" type="curve" smooth="yes"/>
      <point x="686" y="0" type="line" smooth="yes"/>
      <point x="748" y="0"/>
      <point x="808" y="42"/>
      <point x="844" y="109" type="curve"/>
      <point x="844" y="0" type="line"/>
      <point x="1097" y="0" type="line" smooth="yes"/>
      <point x="1185" y="0"/>
      <point x="1262" y="77"/>
      <point x="1272" y="171" type="curve"/>
      <point x="1082" y="171" type="line"/>
      <point x="1082" y="1208" type="line"/>
      <point x="1177" y="1208" type="line"/>
      <point x="1177" y="1374" type="line"/>
      <point x="1082" y="1374" type="line"/>
      <point x="1082" y="1590" type="line"/>
      <point x="844" y="1590" type="line"/>
      <point x="844" y="1374" type="line"/>
      <point x="538" y="1374" type="line"/>
    </contour>
    <contour>
      <point x="430" y="171" type="line"/>
      <point x="430" y="876" type="line"/>
      <point x="844" y="876" type="line"/>
      <point x="844" y="171" type="line"/>
    </contour>
  </outline>
</glyph>
<glyph name="Itilde" format="1">
  <advance width="1102"/>
  <unicode hex="0128"/>
  <outline>
    <contour>
      <point x="128" y="1731" type="curve" name="hr01"/>
      <point x="251" y="1731" type="line"/>
      <point x="300" y="1830" type="line"/>
      <point x="383" y="1830" type="line"/>
      <point x="431" y="1742"/>
      <point x="529" y="1678"/>
      <point x="639" y="1678" type="curve" smooth="yes" name="hr02"/>
      <point x="767" y="1677"/>
      <point x="884" y="1750"/>
      <point x="910" y="1860" type="curve" smooth="yes"/>
      <point x="917" y="1885"/>
      <point x="925" y="1946"/>
      <point x="925" y="1946" type="curve"/>
      <point x="802" y="1946" type="line"/>
      <point x="754" y="1847" type="line"/>
      <point x="663" y="1847" type="line"/>
      <point x="616" y="1936"/>
      <point x="520" y="1999"/>
      <point x="416" y="1999" type="curve" smooth="yes" name="hr03"/>
      <point x="286" y="1999"/>
      <point x="167" y="1924"/>
      <point x="145" y="1817" type="curve" smooth="yes"/>
      <point x="138" y="1784"/>
      <point x="134" y="1765"/>
    </contour>
    <component base="I"/>
  </outline>
</glyph>
<glyph name="itilde" format="1">
  <advance width="612"/>
  <unicode hex="0129"/>
  <outline>
    <contour>
      <point x="-116" y="1349" type="curve" name="hr00"/>
      <point x="20" y="1349" type="line"/>
      <point x="75" y="1459" type="line"/>
      <point x="167" y="1459" type="line"/>
      <point x="220" y="1361"/>
      <point x="329" y="1290"/>
      <point x="451" y="1290" type="curve" smooth="yes"/>
      <point x="594" y="1289"/>
      <point x="724" y="1370"/>
      <point x="753" y="1492" type="curve" smooth="yes"/>
      <point x="760" y="1520"/>
      <point x="769" y="1588"/>
      <point x="769" y="1588" type="curve"/>
      <point x="633" y="1588" type="line"/>
      <point x="579" y="1478" type="line"/>
      <point x="478" y="1478" type="line"/>
      <point x="426" y="1577"/>
      <point x="319" y="1646"/>
      <point x="204" y="1647" type="curve" smooth="yes"/>
      <point x="59" y="1648"/>
      <point x="-73" y="1564"/>
      <point x="-97" y="1445" type="curve" smooth="yes"/>
      <point x="-105" y="1408"/>
      <point x="-110" y="1387"/>
    </contour>
    <component base="dotlessi"/>
  </outline>
</glyph>
<glyph name="dotlessi" format="1">
  <advance width="612"/>
  <unicode hex="0131"/>
  <outline>
    <contour>
      <point x="180" y="254" type="line" smooth="yes" name="hr00"/>
      <point x="180" y="114"/>
      <point x="266" y="0"/>
      <point x="371" y="0" type="curve" smooth="yes"/>
      <point x="459" y="0" type="line" smooth="yes"/>
      <point x="547" y="0"/>
      <point x="624" y="77"/>
      <point x="633" y="171" type="curve"/>
      <point x="419" y="171" type="line"/>
      <point x="419" y="1047" type="line"/>
      <point x="180" y="1047" type="line"/>
    </contour>
    <contour>
      <point x="326" y="1530" type="move" name="top"/>
    </contour>
    <contour>
      <point x="406" y="0" type="move" name="btm"/>
    </contour>
  </outline>
</glyph>
<glyph name="kgreenlandic" format="1">
  <advance width="1221"/>
  <unicode hex="0138"/>
  <outline>
    <contour>
      <point x="220" y="0" type="line" name="hr00"/>
      <point x="459" y="0" type="line"/>
      <point x="459" y="427" type="line"/>
      <point x="813" y="427" type="line"/>
      <point x="813" y="254" type="line" smooth="yes"/>
      <point x="813" y="114"/>
      <point x="900" y="0"/>
      <point x="1003" y="0" type="curve" smooth="yes"/>
      <point x="1066" y="0" type="line" smooth="yes"/>
      <point x="1154" y="0"/>
      <point x="1231" y="77"/>
      <point x="1241" y="171" type="curve"/>
      <point x="1051" y="171" type="line"/>
      <point x="1051" y="341" type="line" smooth="yes"/>
      <point x="1051" y="472"/>
      <point x="969" y="579"/>
      <point x="861" y="598" type="curve"/>
      <point x="1062" y="1047" type="line"/>
      <point x="811" y="1047" type="line"/>
      <point x="624" y="595" type="line"/>
      <point x="459" y="595" type="line"/>
      <point x="459" y="1047" type="line"/>
      <point x="220" y="1047" type="line"/>
    </contour>
  </outline>
</glyph>
<glyph name="lacute" format="1">
  <advance width="592"/>
  <unicode hex="013A"/>
  <outline>
    <contour>
      <point x="172" y="254" type="line" smooth="yes" name="hr00"/>
      <point x="172" y="114"/>
      <point x="258" y="0"/>
      <point x="363" y="0" type="curve"/>
      <point x="447" y="0" type="line"/>
      <point x="532" y="0"/>
      <point x="608" y="64"/>
      <point x="624" y="171" type="curve"/>
      <point x="411" y="171" type="line"/>
      <point x="411" y="1451" type="line"/>
      <point x="172" y="1451" type="line"/>
    </contour>
    <component base="uni0301.cap" xOffset="380" yOffset="-15"/>
  </outline>
</glyph>
<glyph name="Ldot" format="1">
  <advance width="1193"/>
  <unicode hex="013F"/>
  <outline>
    <contour>
      <point x="863" y="792" type="curve" smooth="yes" name="hr00"/>
      <point x="863" y="692"/>
      <point x="933" y="624"/>
      <point x="1030" y="624" type="curve" smooth="yes"/>
      <point x="1122" y="624"/>
      <point x="1196" y="692"/>
      <point x="1196" y="792" type="curve" smooth="yes"/>
      <point x="1196" y="891"/>
      <point x="1122" y="965"/>
      <point x="1030" y="965" type="curve" smooth="yes"/>
      <point x="933" y="965"/>
      <point x="863" y="891"/>
    </contour>
    <component base="L"/>
  </outline>
</glyph>
<glyph name="Lslash" format="1">
  <advance width="1193"/>
  <unicode hex="0141"/>
  <outline>
    <contour>
      <point x="30" y="0" type="curve" name="hr00"/>
      <point x="980" y="0" type="line" smooth="yes"/>
      <point x="1068" y="0"/>
      <point x="1155" y="74"/>
      <point x="1155" y="170" type="curve" smooth="yes"/>
      <point x="1155" y="371" type="line"/>
      <point x="944" y="371" type="line"/>
      <point x="944" y="171" type="line"/>
      <point x="358" y="171" type="line"/>
      <point x="420" y="182"/>
      <point x="505" y="278"/>
      <point x="505" y="416" type="curve" smooth="yes"/>
      <point x="505" y="715" type="line"/>
      <point x="860" y="830" type="line"/>
      <point x="860" y="999" type="line"/>
      <point x="505" y="884" type="line"/>
      <point x="505" y="1357" type="line"/>
      <point x="776" y="1357" type="line"/>
      <point x="776" y="1516" type="line"/>
      <point x="456" y="1516" type="line" smooth="yes"/>
      <point x="352" y="1516"/>
      <point x="267" y="1404"/>
      <point x="267" y="1262" type="curve" smooth="yes"/>
      <point x="267" y="808" type="line"/>
      <point x="30" y="732" type="line"/>
      <point x="30" y="563" type="line"/>
      <point x="267" y="639" type="line"/>
      <point x="267" y="171" type="line"/>
      <point x="205" y="171" type="line" smooth="yes"/>
      <point x="115" y="171"/>
      <point x="39" y="92"/>
    </contour>
  </outline>
</glyph>
<glyph name="Eng" format="1">
  <advance width="1370"/>
  <unicode hex="014A"/>
  <outline>
    <contour>
      <point x="220" y="0" type="line" name="hr00"/>
      <point x="457" y="0" type="line"/>
      <point x="457" y="944" type="line"/>
      <point x="933" y="1315" type="line"/>
      <point x="933" y="-369" type="line"/>
      <point x="500" y="-369" type="line"/>
      <point x="500" y="-540" type="line"/>
      <point x="994" y="-540" type="line" smooth="yes"/>
      <point x="1100" y="-540"/>
      <point x="1178" y="-425"/>
      <point x="1178" y="-286" type="curve" smooth="yes"/>
      <point x="1178" y="1284" type="line" smooth="yes"/>
      <point x="1178" y="1416"/>
      <point x="1094" y="1516"/>
      <point x="991" y="1516" type="curve" smooth="yes"/>
      <point x="924" y="1516"/>
      <point x="879" y="1480"/>
      <point x="830" y="1441" type="curve" smooth="yes"/>
      <point x="457" y="1149" type="line"/>
      <point x="457" y="1516" type="line"/>
      <point x="220" y="1516" type="line"/>
    </contour>
  </outline>
</glyph>
<glyph name="oe" format="1">
  <advance width="1997"/>
  <unicode hex="0153"/>
  <outline>
    <contour>
      <point x="192" y="252" type="line" smooth="yes" name="hr00"/>
      <point x="192" y="113"/>
      <point x="277" y="0"/>
      <point x="380" y="0" type="curve"/>
      <point x="834" y="0" type="line" smooth="yes"/>
      <point x="899" y="0"/>
      <point x="962" y="48"/>
      <point x="1000" y="124" type="curve"/>
      <point x="1038" y="48"/>
      <point x="1101" y="0"/>
      <point x="1166" y="0" type="curve" smooth="yes"/>
      <point x="1702" y="0" type="line" smooth="yes"/>
      <point x="1790" y="0"/>
      <point x="1867" y="77"/>
      <point x="1877" y="171" type="curve"/>
      <point x="1123" y="171" type="line"/>
      <point x="1123" y="460" type="line"/>
      <point x="1825" y="460" type="line"/>
      <point x="1825" y="793" type="line" smooth="yes"/>
      <point x="1825" y="934"/>
      <point x="1739" y="1047"/>
      <point x="1635" y="1047" type="curve" smooth="yes"/>
      <point x="1172" y="1047" type="line" smooth="yes"/>
      <point x="1107" y="1047"/>
      <point x="1044" y="999"/>
      <point x="1006" y="923" type="curve"/>
      <point x="968" y="999"/>
      <point x="905" y="1047"/>
      <point x="840" y="1047" type="curve" smooth="yes"/>
      <point x="380" y="1047" type="line" smooth="yes"/>
      <point x="277" y="1047"/>
      <point x="192" y="935"/>
      <point x="192" y="793" type="curve" smooth="yes"/>
    </contour>
    <contour>
      <point x="1123" y="600" type="line"/>
      <point x="1123" y="876" type="line"/>
      <point x="1586" y="876" type="line"/>
      <point x="1586" y="600" type="line"/>
    </contour>
    <contour>
      <point x="431" y="171" type="line"/>
      <point x="431" y="876" type="line"/>
      <point x="883" y="876" type="line"/>
      <point x="883" y="171" type="line"/>
    </contour>
  </outline>
</glyph>
<glyph name="florin" format="1">
  <advance width="931"/>
  <unicode hex="0192"/>
  <outline>
    <contour>
      <point x="299" y="-269" type="curve" smooth="yes" name="hr00"/>
      <point x="475" y="894" type="line"/>
      <point x="721" y="894" type="line"/>
      <point x="744" y="1048" type="line"/>
      <point x="498" y="1048" type="line"/>
      <point x="554" y="1417" type="line"/>
      <point x="884" y="1417" type="line"/>
      <point x="910" y="1591" type="line"/>
      <point x="532" y="1591" type="line" smooth="yes"/>
      <point x="427" y="1591"/>
      <point x="325" y="1477"/>
      <point x="304" y="1336" type="curve" smooth="yes"/>
      <point x="260" y="1048" type="line"/>
      <point x="120" y="1048" type="line"/>
      <point x="97" y="894" type="line"/>
      <point x="237" y="894" type="line"/>
      <point x="23" y="-525" type="line"/>
      <point x="59" y="-525" type="line" smooth="yes"/>
      <point x="169" y="-525"/>
      <point x="278" y="-409"/>
    </contour>
  </outline>
</glyph>
<glyph name="dotlessj" format="1">
  <advance width="592"/>
  <unicode hex="0237"/>
  <outline>
    <contour>
      <point x="46" y="-368" type="line" name="hr00"/>
      <point x="46" y="-541" type="line"/>
      <point x="242" y="-541" type="line" smooth="yes"/>
      <point x="347" y="-541"/>
      <point x="431" y="-425"/>
      <point x="431" y="-285" type="curve" smooth="yes"/>
      <point x="431" y="1047" type="line"/>
      <point x="192" y="1047" type="line"/>
      <point x="192" y="-368" type="line"/>
    </contour>
    <contour>
      <point x="311" y="1530" type="move" name="top"/>
    </contour>
    <contour>
      <point x="238" y="0" type="move" name="btm"/>
    </contour>
  </outline>
</glyph>
<glyph name="circumflex" format="1">
  <advance width="1142"/>
  <unicode hex="02C6"/>
  <outline>
    <contour>
      <point x="230" y="1245" type="curve" name="hr00"/>
      <point x="343" y="1308"/>
      <point x="461" y="1376"/>
      <point x="572" y="1437" type="curve"/>
      <point x="908" y="1245" type="line"/>
      <point x="940" y="1287"/>
      <point x="959" y="1308"/>
      <point x="992" y="1351" type="curve"/>
      <point x="727" y="1604" type="line" smooth="yes"/>
      <point x="673" y="1656"/>
      <point x="618" y="1678"/>
      <point x="572" y="1678" type="curve" smooth="yes"/>
      <point x="520" y="1678"/>
      <point x="469" y="1655"/>
      <point x="415" y="1604" type="curve" smooth="yes"/>
      <point x="150" y="1351" type="line"/>
      <point x="178" y="1312"/>
      <point x="201" y="1286"/>
    </contour>
    <contour>
      <point x="572" y="1530" type="move" name="_top"/>
    </contour>
  </outline>
</glyph>
<glyph name="breve" format="1">
  <advance width="1109"/>
  <unicode hex="02D8"/>
  <outline>
    <contour>
      <point x="509" y="1248" type="curve" smooth="yes" name="hr00"/>
      <point x="600" y="1248" type="line" smooth="yes"/>
      <point x="799" y="1248"/>
      <point x="959" y="1408"/>
      <point x="959" y="1635" type="curve"/>
      <point x="809" y="1635" type="line"/>
      <point x="809" y="1563"/>
      <point x="701" y="1473"/>
      <point x="578" y="1473" type="curve" smooth="yes"/>
      <point x="532" y="1473" type="line" smooth="yes"/>
      <point x="408" y="1473"/>
      <point x="301" y="1563"/>
      <point x="301" y="1635" type="curve"/>
      <point x="150" y="1635" type="line"/>
      <point x="150" y="1408"/>
      <point x="310" y="1248"/>
    </contour>
    <contour>
      <point x="555" y="1530" type="move" name="_top"/>
    </contour>
  </outline>
</glyph>
<glyph name="dotaccent" format="1">
  <advance width="633"/>
  <unicode hex="02D9"/>
  <outline>
    <contour>
      <point x="317" y="1319" type="curve" smooth="yes" name="hr00"/>
      <point x="409" y="1319"/>
      <point x="483" y="1387"/>
      <point x="483" y="1487" type="curve" smooth="yes"/>
      <point x="483" y="1586"/>
      <point x="409" y="1660"/>
      <point x="317" y="1660" type="curve" smooth="yes"/>
      <point x="220" y="1660"/>
      <point x="150" y="1586"/>
      <point x="150" y="1487" type="curve" smooth="yes"/>
      <point x="150" y="1387"/>
      <point x="220" y="1319"/>
    </contour>
    <contour>
      <point x="319" y="1530" type="move" name="_top"/>
    </contour>
  </outline>
</glyph>
<glyph name="ogonek" format="1">
  <advance width="863"/>
  <unicode hex="02DB"/>
  <outline>
    <contour>
      <point x="199" y="-207" type="line" name="hr00"/>
      <point x="169" y="-241"/>
      <point x="150" y="-277"/>
      <point x="150" y="-337" type="curve" smooth="yes"/>
      <point x="150" y="-428"/>
      <point x="222" y="-509"/>
      <point x="313" y="-509" type="curve" smooth="yes"/>
      <point x="713" y="-509" type="line"/>
      <point x="713" y="-301" type="line"/>
      <point x="331" y="-301" type="line"/>
      <point x="678" y="59" type="line"/>
      <point x="512" y="111" type="line"/>
    </contour>
    <contour>
      <point x="485" y="0" type="move" name="_btm"/>
    </contour>
  </outline>
</glyph>
<glyph name="tilde" format="1">
  <advance width="1185"/>
  <unicode hex="02DC"/>
  <outline>
    <contour>
      <point x="150" y="1348" type="curve" name="hr01"/>
      <point x="286" y="1348" type="line"/>
      <point x="341" y="1458" type="line" name="hr02"/>
      <point x="433" y="1458" type="line"/>
      <point x="486" y="1360"/>
      <point x="595" y="1289"/>
      <point x="717" y="1289" type="curve" smooth="yes" name="hr03"/>
      <point x="860" y="1288"/>
      <point x="990" y="1369"/>
      <point x="1019" y="1491" type="curve" smooth="yes"/>
      <point x="1026" y="1519"/>
      <point x="1035" y="1587"/>
      <point x="1035" y="1587" type="curve"/>
      <point x="899" y="1587" type="line"/>
      <point x="845" y="1477" type="line"/>
      <point x="744" y="1477" type="line"/>
      <point x="692" y="1576"/>
      <point x="585" y="1645"/>
      <point x="470" y="1646" type="curve" smooth="yes" name="hr04"/>
      <point x="325" y="1647"/>
      <point x="193" y="1563"/>
      <point x="169" y="1444" type="curve" smooth="yes"/>
      <point x="161" y="1407"/>
      <point x="156" y="1386"/>
    </contour>
    <contour>
      <point x="592" y="1530" type="move" name="_top"/>
    </contour>
  </outline>
</glyph>
<glyph name="uni0301" format="1">
  <advance width="0"/>
  <unicode hex="0301"/>
  <outline>
    <contour>
      <point x="-243" y="1280" type="line" name="hr00"/>
      <point x="181" y="1393" type="line" smooth="yes"/>
      <point x="251" y="1412"/>
      <point x="305" y="1476"/>
      <point x="305" y="1547" type="curve" smooth="yes"/>
      <point x="305" y="1566"/>
      <point x="301" y="1586"/>
      <point x="292" y="1606" type="curve" smooth="yes"/>
      <point x="267" y="1661"/>
      <point x="221" y="1692"/>
      <point x="170" y="1692" type="curve" smooth="yes"/>
      <point x="140" y="1692"/>
      <point x="108" y="1681"/>
      <point x="77" y="1659" type="curve" smooth="yes"/>
      <point x="-304" y="1385" type="line"/>
    </contour>
    <contour>
      <point x="-93" y="1530" type="move" name="_top"/>
    </contour>
  </outline>
</glyph>
<glyph name="uni0302" format="1">
  <advance width="0"/>
  <unicode hex="0302"/>
  <outline>
    <contour>
      <point x="-341" y="1215" type="curve" name="hr00"/>
      <point x="-228" y="1278"/>
      <point x="-110" y="1346"/>
      <point x="1" y="1407" type="curve"/>
      <point x="337" y="1215" type="line"/>
      <point x="369" y="1257"/>
      <point x="388" y="1278"/>
      <point x="421" y="1321" type="curve"/>
      <point x="156" y="1574" type="line" smooth="yes"/>
      <point x="102" y="1626"/>
      <point x="47" y="1648"/>
      <point x="1" y="1648" type="curve" smooth="yes"/>
      <point x="-51" y="1648"/>
      <point x="-102" y="1625"/>
      <point x="-156" y="1574" type="curve" smooth="yes"/>
      <point x="-421" y="1321" type="line"/>
      <point x="-393" y="1282"/>
      <point x="-370" y="1256"/>
    </contour>
    <contour>
      <point x="1" y="1530" type="move" name="_top"/>
    </contour>
  </outline>
</glyph>
<glyph name="uni0303" format="1">
  <advance width="0"/>
  <unicode hex="0303"/>
  <outline>
    <contour>
      <point x="-442" y="1349" type="curve" name="hr00"/>
      <point x="-306" y="1349" type="line"/>
      <point x="-251" y="1459" type="line"/>
      <point x="-159" y="1459" type="line"/>
      <point x="-106" y="1361"/>
      <point x="3" y="1290"/>
      <point x="125" y="1290" type="curve" smooth="yes"/>
      <point x="268" y="1289"/>
      <point x="398" y="1370"/>
      <point x="427" y="1492" type="curve" smooth="yes"/>
      <point x="434" y="1520"/>
      <point x="443" y="1588"/>
      <point x="443" y="1588" type="curve"/>
      <point x="307" y="1588" type="line"/>
      <point x="253" y="1478" type="line"/>
      <point x="152" y="1478" type="line"/>
      <point x="100" y="1577"/>
      <point x="-7" y="1646"/>
      <point x="-122" y="1647" type="curve" smooth="yes"/>
      <point x="-267" y="1648"/>
      <point x="-399" y="1564"/>
      <point x="-423" y="1445" type="curve" smooth="yes"/>
      <point x="-431" y="1408"/>
      <point x="-436" y="1387"/>
    </contour>
    <contour>
      <point x="0" y="1530" type="move" name="_top"/>
    </contour>
  </outline>
</glyph>
<glyph name="uni0304" format="1">
  <advance width="0"/>
  <unicode hex="0304"/>
  <outline>
    <contour>
      <point x="-421" y="1324" type="curve" name="hr00"/>
      <point x="247" y="1324" type="line"/>
      <point x="336" y="1324"/>
      <point x="412" y="1436"/>
      <point x="421" y="1530" type="curve"/>
      <point x="-246" y="1530" type="line"/>
      <point x="-335" y="1530"/>
      <point x="-411" y="1417"/>
    </contour>
    <contour>
      <point x="-10" y="1530" type="move" name="_top"/>
    </contour>
  </outline>
</glyph>
<glyph name="uni0308" format="1">
  <advance width="0"/>
  <unicode hex="0308"/>
  <outline>
    <contour>
      <point x="268" y="1288" type="curve" smooth="yes" name="hr00"/>
      <point x="360" y="1288"/>
      <point x="434" y="1356"/>
      <point x="434" y="1456" type="curve" smooth="yes"/>
      <point x="434" y="1555"/>
      <point x="360" y="1629"/>
      <point x="268" y="1629" type="curve" smooth="yes"/>
      <point x="171" y="1629"/>
      <point x="101" y="1555"/>
      <point x="101" y="1456" type="curve" smooth="yes"/>
      <point x="101" y="1356"/>
      <point x="171" y="1288"/>
    </contour>
    <contour>
      <point x="-266" y="1288" type="curve" smooth="yes"/>
      <point x="-174" y="1288"/>
      <point x="-100" y="1356"/>
      <point x="-100" y="1456" type="curve" smooth="yes"/>
      <point x="-100" y="1555"/>
      <point x="-174" y="1629"/>
      <point x="-266" y="1629" type="curve" smooth="yes"/>
      <point x="-363" y="1629"/>
      <point x="-433" y="1555"/>
      <point x="-433" y="1456" type="curve" smooth="yes"/>
      <point x="-433" y="1356"/>
      <point x="-363" y="1288"/>
    </contour>
    <contour>
      <point x="-10" y="1530" type="move" name="_top"/>
    </contour>
  </outline>
</glyph>
<glyph name="uni0312" format="1">
  <advance width="0"/>
  <unicode hex="0312"/>
  <outline>
    <contour>
      <point x="0" y="1289" type="curve" smooth="yes" name="hr00"/>
      <point x="96" y="1289"/>
      <point x="169" y="1364"/>
      <point x="169" y="1458" type="curve"/>
      <point x="169" y="1521"/>
      <point x="136" y="1574"/>
      <point x="87" y="1603" type="curve"/>
      <point x="137" y="1775" type="line"/>
      <point x="43" y="1820" type="line"/>
      <point x="-64" y="1707" type="line"/>
      <point x="-134" y="1627"/>
      <point x="-169" y="1561"/>
      <point x="-169" y="1445" type="curve" smooth="yes"/>
      <point x="-169" y="1351"/>
      <point x="-93" y="1289"/>
    </contour>
    <contour>
      <point x="1" y="1530" type="move" name="_top"/>
    </contour>
  </outline>
</glyph>
<glyph name="uni0323" format="1">
  <advance width="0"/>
  <unicode hex="0323"/>
  <outline>
    <contour>
      <point x="-166" y="-344" type="curve" smooth="yes" name="hr00"/>
      <point x="-166" y="-444"/>
      <point x="-96" y="-512"/>
      <point x="1" y="-512" type="curve" smooth="yes"/>
      <point x="93" y="-512"/>
      <point x="167" y="-444"/>
      <point x="167" y="-344" type="curve" smooth="yes"/>
      <point x="167" y="-245"/>
      <point x="93" y="-171"/>
      <point x="1" y="-171" type="curve" smooth="yes"/>
      <point x="-96" y="-171"/>
      <point x="-166" y="-245"/>
    </contour>
    <contour>
      <point x="3" y="1" type="move" name="_btm"/>
    </contour>
  </outline>
</glyph>
<glyph name="uni0326" format="1">
  <advance width="0"/>
  <unicode hex="0326"/>
  <outline>
    <contour>
      <point x="-169" y="-306" type="curve" smooth="yes" name="hr00"/>
      <point x="-169" y="-361"/>
      <point x="-132" y="-406"/>
      <point x="-77" y="-431" type="curve"/>
      <point x="-145" y="-610" type="line"/>
      <point x="-51" y="-655" type="line"/>
      <point x="76" y="-519"/>
      <point x="169" y="-422"/>
      <point x="169" y="-306" type="curve" smooth="yes"/>
      <point x="169" y="-212"/>
      <point x="93" y="-138"/>
      <point x="0" y="-138" type="curve" smooth="yes"/>
      <point x="-96" y="-138"/>
      <point x="-169" y="-212"/>
    </contour>
    <contour>
      <point x="3" y="1" type="move" name="_btm"/>
    </contour>
  </outline>
</glyph>
<glyph name="uni0327" format="1">
  <advance width="0"/>
  <unicode hex="0327"/>
  <outline>
    <contour>
      <point x="-86" y="0" type="line" name="hr00"/>
      <point x="-86" y="-222" type="line"/>
      <point x="120" y="-222" type="line"/>
      <point x="120" y="-338" type="line"/>
      <point x="-149" y="-338" type="line" smooth="yes"/>
      <point x="-238" y="-338"/>
      <point x="-314" y="-415"/>
      <point x="-324" y="-508" type="curve"/>
      <point x="161" y="-508" type="line" smooth="yes"/>
      <point x="251" y="-508"/>
      <point x="325" y="-415"/>
      <point x="325" y="-303" type="curve" smooth="yes"/>
      <point x="325" y="-189"/>
      <point x="251" y="-96"/>
      <point x="161" y="-96" type="curve" smooth="yes"/>
      <point x="34" y="-96" type="line"/>
      <point x="34" y="0" type="line"/>
    </contour>
    <contour>
      <point x="-17" y="0" type="move" name="_btm"/>
    </contour>
  </outline>
</glyph>
<glyph name="uni032E" format="1">
  <advance width="0"/>
  <unicode hex="032E"/>
  <outline>
    <contour>
      <point x="-404" y="-154" type="line" name="hr00"/>
      <point x="-404" y="-381"/>
      <point x="-244" y="-541"/>
      <point x="-45" y="-541" type="curve" smooth="yes"/>
      <point x="46" y="-541" type="line" smooth="yes"/>
      <point x="245" y="-541"/>
      <point x="405" y="-381"/>
      <point x="405" y="-154" type="curve"/>
      <point x="255" y="-154" type="line"/>
      <point x="255" y="-226"/>
      <point x="147" y="-316"/>
      <point x="24" y="-316" type="curve" smooth="yes"/>
      <point x="-22" y="-316" type="line" smooth="yes"/>
      <point x="-146" y="-316"/>
      <point x="-253" y="-226"/>
      <point x="-253" y="-154" type="curve"/>
    </contour>
    <contour>
      <point x="1" y="0" type="move" name="_btm"/>
    </contour>
  </outline>
</glyph>
<glyph name="uni0331" format="1">
  <advance width="0"/>
  <unicode hex="0331"/>
  <outline>
    <contour>
      <point x="-284" y="-247" type="line" smooth="yes" name="hr00"/>
      <point x="-373" y="-247"/>
      <point x="-449" y="-325"/>
      <point x="-459" y="-418" type="curve"/>
      <point x="269" y="-418" type="line" smooth="yes"/>
      <point x="358" y="-418"/>
      <point x="434" y="-341"/>
      <point x="443" y="-247" type="curve"/>
    </contour>
    <contour>
      <point x="0" y="-15" type="move" name="_btm"/>
    </contour>
  </outline>
</glyph>
<glyph name="pi" format="1">
  <advance width="1285"/>
  <unicode hex="03C0"/>
  <outline>
    <contour>
      <point x="170" y="251" type="line" name="hr00"/>
      <point x="154" y="113"/>
      <point x="274" y="0"/>
      <point x="379" y="0" type="curve"/>
      <point x="481" y="875" type="line"/>
      <point x="799" y="875" type="line"/>
      <point x="799" y="140" type="line" smooth="yes"/>
      <point x="799" y="56"/>
      <point x="897" y="0"/>
      <point x="962" y="0" type="curve" smooth="yes"/>
      <point x="1069" y="0" type="line" smooth="yes"/>
      <point x="1157" y="0"/>
      <point x="1234" y="77"/>
      <point x="1244" y="171" type="curve"/>
      <point x="1027" y="171" type="line"/>
      <point x="1027" y="875" type="line"/>
      <point x="1178" y="875" type="line"/>
      <point x="1178" y="1047" type="line"/>
      <point x="80" y="1047" type="line"/>
      <point x="80" y="875" type="line"/>
      <point x="299" y="875" type="line"/>
      <point x="284" y="841"/>
      <point x="274" y="804"/>
      <point x="270" y="765" type="curve" smooth="yes"/>
    </contour>
    <contour>
      <point x="644" y="1770" type="move" name="top"/>
    </contour>
  </outline>
</glyph>
<glyph name="endash" format="1">
  <advance width="1604"/>
  <unicode hex="2013"/>
  <outline>
    <contour>
      <point x="200" y="533" type="curve" name="hr00"/>
      <point x="1229" y="533" type="line" smooth="yes"/>
      <point x="1317" y="533"/>
      <point x="1394" y="625"/>
      <point x="1404" y="719" type="curve"/>
      <point x="375" y="719" type="line" smooth="yes"/>
      <point x="285" y="719"/>
      <point x="209" y="627"/>
    </contour>
  </outline>
</glyph>
<glyph name="emdash" format="1">
  <advance width="2095"/>
  <unicode hex="2014"/>
  <outline>
    <contour>
      <point x="200" y="533" type="curve" name="hr00"/>
      <point x="1720" y="533" type="line" smooth="yes"/>
      <point x="1808" y="533"/>
      <point x="1885" y="625"/>
      <point x="1895" y="719" type="curve"/>
      <point x="375" y="719" type="line" smooth="yes"/>
      <point x="285" y="719"/>
      <point x="209" y="627"/>
    </contour>
  </outline>
</glyph>
<glyph name="quotedblleft" format="1">
  <advance width="1072"/>
  <unicode hex="201C"/>
  <outline>
    <contour>
      <point x="774" y="898" type="curve" smooth="yes" name="hr01"/>
      <point x="870" y="898"/>
      <point x="943" y="973"/>
      <point x="943" y="1067" type="curve" smooth="yes"/>
      <point x="943" y="1130"/>
      <point x="910" y="1183"/>
      <point x="861" y="1212" type="curve"/>
      <point x="952" y="1470" type="line"/>
      <point x="858" y="1515" type="line"/>
      <point x="744" y="1372" type="line" smooth="yes"/>
      <point x="658" y="1264"/>
      <point x="605" y="1183"/>
      <point x="605" y="1067" type="curve" smooth="yes"/>
      <point x="605" y="973"/>
      <point x="681" y="898"/>
    </contour>
    <contour>
      <point x="259" y="898" type="curve" smooth="yes"/>
      <point x="355" y="898"/>
      <point x="428" y="973"/>
      <point x="428" y="1067" type="curve" smooth="yes"/>
      <point x="428" y="1130"/>
      <point x="395" y="1183"/>
      <point x="346" y="1212" type="curve"/>
      <point x="437" y="1470" type="line"/>
      <point x="343" y="1515" type="line"/>
      <point x="229" y="1372" type="line" smooth="yes"/>
      <point x="143" y="1264"/>
      <point x="90" y="1183"/>
      <point x="90" y="1067" type="curve" smooth="yes"/>
      <point x="90" y="973"/>
      <point x="166" y="898"/>
    </contour>
  </outline>
</glyph>
<glyph name="quotedblright" format="1">
  <advance width="1072"/>
  <unicode hex="201D"/>
  <outline>
    <contour>
      <point x="635" y="943" type="line" name="hr01"/>
      <point x="729" y="898" type="line"/>
      <point x="843" y="1041" type="line" smooth="yes"/>
      <point x="929" y="1149"/>
      <point x="982" y="1230"/>
      <point x="982" y="1346" type="curve" smooth="yes" name="hr02"/>
      <point x="982" y="1440"/>
      <point x="906" y="1515"/>
      <point x="813" y="1515" type="curve" smooth="yes"/>
      <point x="717" y="1515"/>
      <point x="644" y="1440"/>
      <point x="644" y="1346" type="curve"/>
      <point x="644" y="1283"/>
      <point x="677" y="1230"/>
      <point x="726" y="1201" type="curve"/>
    </contour>
    <contour>
      <point x="214" y="898" type="line"/>
      <point x="328" y="1041" type="line" smooth="yes"/>
      <point x="414" y="1149"/>
      <point x="467" y="1230"/>
      <point x="467" y="1346" type="curve" smooth="yes"/>
      <point x="467" y="1440"/>
      <point x="391" y="1515"/>
      <point x="298" y="1515" type="curve" smooth="yes"/>
      <point x="202" y="1515"/>
      <point x="129" y="1440"/>
      <point x="129" y="1346" type="curve"/>
      <point x="129" y="1283"/>
      <point x="162" y="1230"/>
      <point x="211" y="1201" type="curve"/>
      <point x="120" y="943" type="line"/>
    </contour>
  </outline>
</glyph>
<glyph name="perthousand" format="1">
  <advance width="2675"/>
  <unicode hex="2030"/>
  <outline>
    <contour>
      <point x="1934" y="159" type="line" smooth="yes" name="hr00"/>
      <point x="1934" y="70"/>
      <point x="2001" y="0"/>
      <point x="2083" y="0" type="curve" smooth="yes"/>
      <point x="2415" y="-1" type="line" smooth="yes"/>
      <point x="2497" y="-1"/>
      <point x="2563" y="69"/>
      <point x="2563" y="158" type="curve" smooth="yes"/>
      <point x="2563" y="413" type="line" smooth="yes"/>
      <point x="2563" y="502"/>
      <point x="2496" y="572"/>
      <point x="2414" y="572" type="curve" smooth="yes"/>
      <point x="2082" y="573" type="line" smooth="yes"/>
      <point x="2000" y="573"/>
      <point x="1934" y="503"/>
      <point x="1934" y="414" type="curve" smooth="yes"/>
    </contour>
    <contour>
      <point x="2146" y="108" type="line"/>
      <point x="2146" y="464" type="line"/>
      <point x="2352" y="464" type="line"/>
      <point x="2352" y="108" type="line"/>
    </contour>
    <component base="percent"/>
  </outline>
</glyph>
<glyph name="minute" format="1">
  <advance width="643"/>
  <unicode hex="2032"/>
  <outline>
    <contour>
      <point x="214" y="822" type="line" name="hr00"/>
      <point x="314" y="822" type="line"/>
      <point x="454" y="1319" type="line" smooth="yes"/>
      <point x="459" y="1335"/>
      <point x="462" y="1353"/>
      <point x="463" y="1370" type="curve" smooth="yes"/>
      <point x="472" y="1449"/>
      <point x="416" y="1515"/>
      <point x="336" y="1515" type="curve" smooth="yes"/>
      <point x="258" y="1515"/>
      <point x="190" y="1450"/>
      <point x="181" y="1369" type="curve" smooth="yes"/>
      <point x="180" y="1352"/>
      <point x="181" y="1333"/>
      <point x="181" y="1321" type="curve" smooth="yes"/>
    </contour>
  </outline>
</glyph>
<glyph name="guilsinglright" format="1">
  <advance width="784"/>
  <unicode hex="203A"/>
  <outline>
    <contour>
      <point x="130" y="31" type="line" name="hr00"/>
      <point x="289" y="31" type="line"/>
      <point x="605" y="393" type="line"/>
      <point x="638" y="430"/>
      <point x="664" y="474"/>
      <point x="664" y="529" type="curve" smooth="yes"/>
      <point x="664" y="582"/>
      <point x="638" y="625"/>
      <point x="605" y="664" type="curve" smooth="yes"/>
      <point x="289" y="1029" type="line"/>
      <point x="130" y="1029" type="line"/>
      <point x="376" y="530" type="line"/>
    </contour>
  </outline>
</glyph>
<glyph name="fraction" format="1">
  <advance width="1048"/>
  <unicode hex="2044"/>
  <outline>
    <contour>
      <point x="175" y="-59" type="curve" name="hr00"/>
      <point x="346" y="-59" type="line"/>
      <point x="872" y="1311" type="line"/>
      <point x="700" y="1311" type="line"/>
      <point x="523" y="850"/>
      <point x="352" y="404"/>
    </contour>
  </outline>
</glyph>
<glyph name="Euro" format="1">
  <advance width="1424"/>
  <unicode hex="20AC"/>
  <outline>
    <contour>
      <point x="341" y="252" type="line" smooth="yes" name="hr00"/>
      <point x="341" y="113"/>
      <point x="426" y="0"/>
      <point x="529" y="0" type="curve" smooth="yes"/>
      <point x="1149" y="0" type="line" smooth="yes"/>
      <point x="1253" y="0"/>
      <point x="1339" y="113"/>
      <point x="1339" y="252" type="curve" smooth="yes"/>
      <point x="1339" y="277" type="line"/>
      <point x="1101" y="277" type="line"/>
      <point x="1101" y="171" type="line"/>
      <point x="580" y="171" type="line"/>
      <point x="580" y="404" type="line"/>
      <point x="756" y="404" type="line" smooth="yes"/>
      <point x="844" y="404"/>
      <point x="971" y="479"/>
      <point x="971" y="575" type="curve"/>
      <point x="580" y="575" type="line"/>
      <point x="580" y="721" type="line"/>
      <point x="828" y="721" type="line" smooth="yes"/>
      <point x="916" y="721"/>
      <point x="1003" y="796"/>
      <point x="1003" y="892" type="curve"/>
      <point x="580" y="892" type="line"/>
      <point x="580" y="1176" type="line"/>
      <point x="1101" y="1176" type="line"/>
      <point x="1101" y="980" type="line"/>
      <point x="1339" y="980" type="line"/>
      <point x="1340" y="1091" type="line"/>
      <point x="1340" y="1233"/>
      <point x="1254" y="1345"/>
      <point x="1149" y="1345" type="curve" smooth="yes"/>
      <point x="529" y="1345" type="line" smooth="yes"/>
      <point x="426" y="1345"/>
      <point x="341" y="1233"/>
      <point x="341" y="1091" type="curve" smooth="yes"/>
      <point x="341" y="892" type="line"/>
      <point x="319" y="892" type="line" smooth="yes"/>
      <point x="229" y="892"/>
      <point x="153" y="813"/>
      <point x="144" y="721" type="curve"/>
      <point x="341" y="721" type="line"/>
      <point x="341" y="575" type="line"/>
      <point x="319" y="575" type="line" smooth="yes"/>
      <point x="229" y="575"/>
      <point x="153" y="496"/>
      <point x="144" y="404" type="curve"/>
      <point x="341" y="404" type="line"/>
    </contour>
  </outline>
</glyph>
<glyph name="trademark" format="1">
  <advance width="1802"/>
  <unicode hex="2122"/>
  <outline>
    <contour>
      <point x="877" y="955" type="line" name="hr00"/>
      <point x="1008" y="955" type="line"/>
      <point x="1008" y="1305" type="line"/>
      <point x="1180" y="1410" type="line"/>
      <point x="1180" y="955" type="line"/>
      <point x="1311" y="955" type="line"/>
      <point x="1311" y="1304" type="line"/>
      <point x="1482" y="1410" type="line"/>
      <point x="1482" y="955" type="line"/>
      <point x="1615" y="955" type="line"/>
      <point x="1615" y="1419" type="line" smooth="yes"/>
      <point x="1615" y="1471"/>
      <point x="1566" y="1516"/>
      <point x="1512" y="1516" type="curve" smooth="yes"/>
      <point x="1475" y="1516"/>
      <point x="1456" y="1506"/>
      <point x="1435" y="1487" type="curve"/>
      <point x="1311" y="1408" type="line"/>
      <point x="1311" y="1419" type="line" smooth="yes"/>
      <point x="1311" y="1471"/>
      <point x="1262" y="1516"/>
      <point x="1209" y="1516" type="curve" smooth="yes"/>
      <point x="1173" y="1516"/>
      <point x="1151" y="1506"/>
      <point x="1130" y="1487" type="curve"/>
      <point x="1008" y="1409" type="line"/>
      <point x="1008" y="1516" type="line"/>
      <point x="877" y="1516" type="line"/>
    </contour>
    <contour>
      <point x="338" y="955" type="line"/>
      <point x="472" y="955" type="line"/>
      <point x="472" y="1421" type="line"/>
      <point x="651" y="1421" type="line"/>
      <point x="651" y="1516" type="line"/>
      <point x="160" y="1516" type="line"/>
      <point x="159" y="1421" type="line"/>
      <point x="338" y="1421" type="line"/>
    </contour>
  </outline>
</glyph>
<glyph name="Delta" format="1">
  <advance width="1450"/>
  <unicode hex="2206"/>
  <outline>
    <contour>
      <point x="54" y="171" type="line" name="hr01"/>
      <point x="64" y="77"/>
      <point x="141" y="0"/>
      <point x="229" y="0" type="curve"/>
      <point x="1395" y="0" type="line"/>
      <point x="1023" y="1516" type="line"/>
      <point x="661" y="1516" type="line" name="hr02"/>
      <point x="320" y="171" type="line"/>
    </contour>
    <contour>
      <point x="569" y="176" type="line" name="hr03"/>
      <point x="841" y="1345" type="line" name="hr04"/>
      <point x="1107" y="176" type="line"/>
    </contour>
  </outline>
</glyph>
<glyph name="product" format="1">
  <advance width="1397"/>
  <unicode hex="220F"/>
  <outline>
    <contour>
      <point x="200" y="-170" type="line" name="hr00"/>
      <point x="438" y="-170" type="line"/>
      <point x="438" y="1345" type="line"/>
      <point x="957" y="1345" type="line"/>
      <point x="957" y="-170" type="line"/>
      <point x="1197" y="-170" type="line"/>
      <point x="1197" y="1516" type="line"/>
      <point x="176" y="1516" type="line" smooth="yes"/>
      <point x="88" y="1516"/>
      <point x="11" y="1440"/>
      <point x="1" y="1345" type="curve"/>
      <point x="200" y="1345" type="line"/>
    </contour>
    <contour>
      <point x="712" y="1770" type="move" name="top"/>
    </contour>
  </outline>
</glyph>
<glyph name="summation" format="1">
  <advance width="1113"/>
  <unicode hex="2211"/>
  <outline>
    <contour>
      <point x="99" y="0" type="line" name="hr00"/>
      <point x="99" y="-139"/>
      <point x="180" y="-170"/>
      <point x="286" y="-170" type="curve" smooth="yes"/>
      <point x="876" y="-170" type="line" smooth="yes"/>
      <point x="964" y="-170"/>
      <point x="1041" y="-93"/>
      <point x="1051" y="1" type="curve"/>
      <point x="347" y="1" type="line"/>
      <point x="675" y="680" type="line"/>
      <point x="362" y="1347" type="line"/>
      <point x="962" y="1347" type="line"/>
      <point x="962" y="1516" type="line"/>
      <point x="284" y="1516" type="line" smooth="yes"/>
      <point x="180" y="1516"/>
      <point x="113" y="1502"/>
      <point x="113" y="1360" type="curve"/>
      <point x="404" y="684" type="line"/>
    </contour>
  </outline>
</glyph>
<glyph name="minus" format="1">
  <advance width="1285"/>
  <unicode hex="2212"/>
  <outline>
    <contour>
      <point x="250" y="431" type="line" name="hr00"/>
      <point x="1124" y="431" type="line"/>
      <point x="1124" y="607" type="line"/>
      <point x="250" y="607" type="line"/>
    </contour>
  </outline>
</glyph>
<glyph name="notequal" format="1">
  <advance width="1285"/>
  <unicode hex="2260"/>
  <outline>
    <contour>
      <point x="250" y="201" type="line" name="hr00"/>
      <point x="477" y="201" type="line"/>
      <point x="377" y="-59" type="line"/>
      <point x="550" y="-59" type="line"/>
      <point x="649" y="201" type="line"/>
      <point x="1125" y="201" type="line"/>
      <point x="1125" y="376" type="line"/>
      <point x="716" y="376" type="line"/>
      <point x="834" y="683" type="line"/>
      <point x="1125" y="683" type="line"/>
      <point x="1125" y="859" type="line"/>
      <point x="901" y="859" type="line"/>
      <point x="1002" y="1121" type="line"/>
      <point x="830" y="1121" type="line"/>
      <point x="729" y="859" type="line"/>
      <point x="250" y="859" type="line"/>
      <point x="250" y="683" type="line"/>
      <point x="662" y="683" type="line"/>
      <point x="544" y="376" type="line"/>
      <point x="250" y="376" type="line"/>
    </contour>
  </outline>
</glyph>
<glyph name="lessequal" format="1">
  <advance width="1285"/>
  <unicode hex="2264"/>
  <outline>
    <contour>
      <point x="179" y="621" type="line" name="hr00"/>
      <point x="1015" y="363" type="line"/>
      <point x="1015" y="544" type="line"/>
      <point x="849" y="587"/>
      <point x="567" y="662"/>
      <point x="367" y="715" type="curve"/>
      <point x="1015" y="883" type="line"/>
      <point x="1015" y="1065" type="line"/>
      <point x="730" y="978"/>
      <point x="465" y="894"/>
      <point x="179" y="807" type="curve"/>
    </contour>
    <contour>
      <point x="179" y="83" type="line"/>
      <point x="1015" y="83" type="line"/>
      <point x="1015" y="259" type="line"/>
      <point x="179" y="259" type="line"/>
    </contour>
  </outline>
</glyph>
<glyph name="lozenge" format="1">
  <advance width="1285"/>
  <unicode hex="25CA"/>
  <outline>
    <contour>
      <point x="512" y="0" type="line" name="hr01"/>
      <point x="741" y="0" type="line"/>
      <point x="1113" y="762" type="line"/>
      <point x="739" y="1516" type="line"/>
      <point x="510" y="1516" type="line"/>
      <point x="130" y="762" type="line"/>
    </contour>
    <contour>
      <point x="620" y="180" type="line" name="hr02"/>
      <point x="343" y="762" type="line"/>
      <point x="621" y="1336" type="line"/>
      <point x="891" y="762" type="line"/>
    </contour>
  </outline>
</glyph>
<glyph name="f_f_i" format="1">
  <advance width="2136"/>
  <unicode hex="FB03"/>
  <outline>
    <contour>
      <point x="496" y="-269" type="curve" name="hr00"/>
      <point x="496" y="894" type="line"/>
      <point x="1020" y="894" type="line"/>
      <point x="1020" y="-525" type="line"/>
      <point x="1056" y="-525" type="line" smooth="yes"/>
      <point x="1166" y="-525"/>
      <point x="1258" y="-409"/>
      <point x="1258" y="-269" type="curve" smooth="yes"/>
      <point x="1258" y="894" type="line"/>
      <point x="1508" y="894" type="line"/>
      <point x="1508" y="1048" type="line"/>
      <point x="1258" y="1048" type="line"/>
      <point x="1258" y="1417" type="line"/>
      <point x="1542" y="1417" type="line"/>
      <point x="1542" y="1591" type="line"/>
      <point x="1210" y="1591" type="line" smooth="yes"/>
      <point x="1105" y="1591"/>
      <point x="1020" y="1477"/>
      <point x="1020" y="1336" type="curve" smooth="yes"/>
      <point x="1020" y="1048" type="line"/>
      <point x="496" y="1048" type="line"/>
      <point x="496" y="1417" type="line"/>
      <point x="830" y="1417" type="line"/>
      <point x="830" y="1591" type="line"/>
      <point x="448" y="1591" type="line" smooth="yes"/>
      <point x="343" y="1591"/>
      <point x="258" y="1477"/>
      <point x="258" y="1336" type="curve" smooth="yes"/>
      <point x="258" y="1048" type="line"/>
      <point x="178" y="1048" type="line"/>
      <point x="178" y="894" type="line"/>
      <point x="258" y="894" type="line"/>
      <point x="258" y="-525" type="line"/>
      <point x="294" y="-525" type="line" smooth="yes"/>
      <point x="404" y="-525"/>
      <point x="496" y="-409"/>
    </contour>
    <component base="i" xOffset="1524"/>
  </outline>
</glyph>
<glyph name="f_f_l" format="1">
  <advance width="2116"/>
  <unicode hex="FB04"/>
  <outline>
    <contour>
      <point x="1258" y="-269" type="curve" name="hr00"/>
      <point x="1258" y="894" type="line"/>
      <point x="1508" y="894" type="line"/>
      <point x="1508" y="1048" type="line"/>
      <point x="1258" y="1048" type="line"/>
      <point x="1258" y="1417" type="line"/>
      <point x="1696" y="1417" type="line"/>
      <point x="1696" y="254" type="line" smooth="yes"/>
      <point x="1696" y="114"/>
      <point x="1782" y="0"/>
      <point x="1887" y="0" type="curve" smooth="yes"/>
      <point x="1971" y="0" type="line" smooth="yes"/>
      <point x="2056" y="0"/>
      <point x="2132" y="64"/>
      <point x="2148" y="171" type="curve"/>
      <point x="1935" y="171" type="line"/>
      <point x="1935" y="1591" type="line"/>
      <point x="1210" y="1591" type="line" smooth="yes"/>
      <point x="1105" y="1591"/>
      <point x="1020" y="1477"/>
      <point x="1020" y="1336" type="curve" smooth="yes"/>
      <point x="1020" y="1048" type="line"/>
      <point x="496" y="1048" type="line"/>
      <point x="496" y="1417" type="line"/>
      <point x="830" y="1417" type="line"/>
      <point x="830" y="1591" type="line"/>
      <point x="448" y="1591" type="line" smooth="yes"/>
      <point x="343" y="1591"/>
      <point x="258" y="1477"/>
      <point x="258" y="1336" type="curve" smooth="yes"/>
      <point x="258" y="1048" type="line"/>
      <point x="178" y="1048" type="line"/>
      <point x="178" y="894" type="line"/>
      <point x="258" y="894" type="line"/>
      <point x="258" y="-525" type="line"/>
      <point x="294" y="-525" type="line" smooth="yes"/>
      <point x="404" y="-525"/>
      <point x="496" y="-409"/>
      <point x="496" y="-269" type="curve" smooth="yes"/>
      <point x="496" y="894" type="line"/>
      <point x="1020" y="894" type="line"/>
      <point x="1020" y="-525" type="line"/>
      <point x="1056" y="-525" type="line" smooth="yes"/>
      <point x="1166" y="-525"/>
      <point x="1258" y="-409"/>
    </contour>
  </outline>
</glyph>
<glyph name="I.uc" format="1">
  <advance width="1102"/>
  <outline>
    <contour>
      <point x="319" y="0" type="line"/>
      <point x="684" y="0" type="line" smooth="yes"/>
      <point x="788" y="0"/>
      <point x="874" y="113"/>
      <point x="874" y="252" type="curve" smooth="yes"/>
      <point x="874" y="1516" type="line"/>
      <point x="291" y="1516" type="line" smooth="yes"/>
      <point x="185" y="1516"/>
      <point x="100" y="1404"/>
      <point x="100" y="1262" type="curve" smooth="yes"/>
      <point x="100" y="1002" type="line"/>
      <point x="306" y="1002" type="line"/>
      <point x="306" y="1347" type="line"/>
      <point x="636" y="1347" type="line"/>
      <point x="636" y="171" type="line"/>
      <point x="319" y="171" type="line"/>
    </contour>
  </outline>
</glyph>
<glyph name="breve.cap" format="1">
  <advance width="1109"/>
  <outline>
    <contour>
      <point x="509" y="1628" type="curve" smooth="yes" name="hr00"/>
      <point x="600" y="1628" type="line" smooth="yes"/>
      <point x="799" y="1628"/>
      <point x="959" y="1787"/>
      <point x="959" y="2014" type="curve"/>
      <point x="809" y="2014" type="line"/>
      <point x="809" y="1942"/>
      <point x="701" y="1853"/>
      <point x="578" y="1853" type="curve" smooth="yes"/>
      <point x="532" y="1853" type="line" smooth="yes"/>
      <point x="408" y="1853"/>
      <point x="301" y="1942"/>
      <point x="301" y="2014" type="curve"/>
      <point x="150" y="2014" type="line"/>
      <point x="150" y="1787"/>
      <point x="310" y="1628"/>
    </contour>
    <contour>
      <point x="554" y="1785" type="move" name="_top"/>
    </contour>
  </outline>
</glyph>
<glyph name="dotaccent.cap" format="1">
  <advance width="633"/>
  <outline>
    <contour>
      <point x="317" y="1693" type="curve" smooth="yes" name="hr00"/>
      <point x="409" y="1693"/>
      <point x="483" y="1751"/>
      <point x="483" y="1851" type="curve" smooth="yes"/>
      <point x="483" y="1950"/>
      <point x="409" y="2014"/>
      <point x="317" y="2014" type="curve" smooth="yes"/>
      <point x="220" y="2014"/>
      <point x="150" y="1950"/>
      <point x="150" y="1851" type="curve" smooth="yes"/>
      <point x="150" y="1751"/>
      <point x="220" y="1693"/>
    </contour>
    <contour>
      <point x="316" y="1785" type="move" name="_top"/>
    </contour>
  </outline>
</glyph>
<glyph name="grave.cap" format="1">
  <advance width="818"/>
  <outline>
    <contour>
      <point x="668" y="1766" type="line" name="hr00"/>
      <point x="355" y="2033" type="line"/>
      <point x="327" y="2053"/>
      <point x="299" y="2062"/>
      <point x="272" y="2062" type="curve" smooth="yes"/>
      <point x="226" y="2062"/>
      <point x="185" y="2035"/>
      <point x="162" y="1985" type="curve" smooth="yes"/>
      <point x="154" y="1967"/>
      <point x="150" y="1949"/>
      <point x="150" y="1932" type="curve" smooth="yes"/>
      <point x="150" y="1868"/>
      <point x="199" y="1811"/>
      <point x="262" y="1794" type="curve"/>
      <point x="613" y="1672" type="line"/>
    </contour>
    <contour>
      <point x="501" y="1785" type="move" name="_top"/>
    </contour>
  </outline>
</glyph>
<glyph name="hungarumlaut.cap" format="1">
  <advance width="1284"/>
  <outline>
    <contour>
      <point x="737" y="1626" type="line" name="hr00"/>
      <point x="1033" y="1761" type="line"/>
      <point x="1094" y="1791"/>
      <point x="1134" y="1852"/>
      <point x="1134" y="1914" type="curve" smooth="yes"/>
      <point x="1134" y="1989"/>
      <point x="1071" y="2054"/>
      <point x="998" y="2054" type="curve" smooth="yes"/>
      <point x="957" y="2054"/>
      <point x="915" y="2035"/>
      <point x="882" y="1999" type="curve" smooth="yes"/>
      <point x="650" y="1741" type="line"/>
    </contour>
    <contour>
      <point x="237" y="1626" type="line"/>
      <point x="533" y="1761" type="line"/>
      <point x="594" y="1791"/>
      <point x="634" y="1852"/>
      <point x="634" y="1914" type="curve" smooth="yes"/>
      <point x="634" y="1989"/>
      <point x="571" y="2054"/>
      <point x="498" y="2054" type="curve" smooth="yes"/>
      <point x="457" y="2054"/>
      <point x="415" y="2035"/>
      <point x="382" y="1999" type="curve" smooth="yes"/>
      <point x="150" y="1741" type="line"/>
    </contour>
    <contour>
      <point x="563" y="1785" type="move" name="_top"/>
    </contour>
  </outline>
</glyph>
<glyph name="macron.cap" format="1">
  <advance width="1202"/>
  <outline>
    <contour>
      <point x="150" y="1713" type="curve" name="hr00"/>
      <point x="878" y="1713" type="line" smooth="yes"/>
      <point x="967" y="1713"/>
      <point x="1043" y="1790"/>
      <point x="1052" y="1884" type="curve"/>
      <point x="325" y="1884" type="line" smooth="yes"/>
      <point x="236" y="1884"/>
      <point x="160" y="1806"/>
    </contour>
    <contour>
      <point x="584" y="1785" type="move" name="_top"/>
    </contour>
  </outline>
</glyph>
<glyph name="tilde.cap" format="1">
  <advance width="1097"/>
  <outline>
    <contour>
      <point x="150" y="1746" type="curve" name="hr00"/>
      <point x="273" y="1746" type="line"/>
      <point x="322" y="1845" type="line"/>
      <point x="405" y="1845" type="line"/>
      <point x="453" y="1757"/>
      <point x="551" y="1693"/>
      <point x="661" y="1693" type="curve" smooth="yes"/>
      <point x="789" y="1692"/>
      <point x="906" y="1765"/>
      <point x="932" y="1875" type="curve" smooth="yes"/>
      <point x="939" y="1900"/>
      <point x="947" y="1961"/>
      <point x="947" y="1961" type="curve"/>
      <point x="824" y="1961" type="line"/>
      <point x="776" y="1862" type="line"/>
      <point x="685" y="1862" type="line"/>
      <point x="638" y="1951"/>
      <point x="542" y="2014"/>
      <point x="438" y="2014" type="curve" smooth="yes"/>
      <point x="308" y="2014"/>
      <point x="189" y="1939"/>
      <point x="167" y="1832" type="curve" smooth="yes"/>
      <point x="160" y="1799"/>
      <point x="156" y="1780"/>
    </contour>
    <contour>
      <point x="571" y="1785" type="move" name="_top"/>
    </contour>
  </outline>
</glyph>
<glyph name="uni0302.cap" format="1">
  <advance width="0"/>
  <outline>
    <contour>
      <point x="-308" y="1621" type="curve" name="hr00"/>
      <point x="-206" y="1677"/>
      <point x="-100" y="1739"/>
      <point x="0" y="1793" type="curve"/>
      <point x="302" y="1621" type="line"/>
      <point x="331" y="1658"/>
      <point x="348" y="1677"/>
      <point x="378" y="1716" type="curve"/>
      <point x="139" y="1944" type="line"/>
      <point x="91" y="1991"/>
      <point x="41" y="2010"/>
      <point x="0" y="2010" type="curve" smooth="yes"/>
      <point x="-47" y="2010"/>
      <point x="-93" y="1990"/>
      <point x="-141" y="1944" type="curve" smooth="yes"/>
      <point x="-380" y="1716" type="line"/>
      <point x="-355" y="1681"/>
      <point x="-334" y="1658"/>
    </contour>
    <contour>
      <point x="1" y="1770" type="move" name="_top"/>
    </contour>
  </outline>
</glyph>
<glyph name="uni0303.cap" format="1">
  <advance width="0"/>
  <outline>
    <contour>
      <point x="-398" y="1766" type="curve" name="hr01"/>
      <point x="-275" y="1766" type="line"/>
      <point x="-226" y="1865" type="line"/>
      <point x="-143" y="1865" type="line"/>
      <point x="-95" y="1777"/>
      <point x="3" y="1713"/>
      <point x="113" y="1713" type="curve" smooth="yes" name="hr02"/>
      <point x="241" y="1712"/>
      <point x="358" y="1785"/>
      <point x="384" y="1895" type="curve" smooth="yes"/>
      <point x="391" y="1920"/>
      <point x="399" y="1981"/>
      <point x="399" y="1981" type="curve"/>
      <point x="276" y="1981" type="line"/>
      <point x="228" y="1882" type="line"/>
      <point x="137" y="1882" type="line"/>
      <point x="90" y="1971"/>
      <point x="-6" y="2034"/>
      <point x="-110" y="2034" type="curve" smooth="yes" name="hr03"/>
      <point x="-240" y="2034"/>
      <point x="-359" y="1959"/>
      <point x="-381" y="1852" type="curve" smooth="yes"/>
      <point x="-388" y="1819"/>
      <point x="-392" y="1800"/>
    </contour>
    <contour>
      <point x="23" y="1785" type="move" name="_top"/>
    </contour>
  </outline>
</glyph>
<glyph name="uni0306.cap" format="1">
  <advance width="0"/>
  <outline>
    <contour>
      <point x="-45" y="1648" type="curve" smooth="yes" name="hr00"/>
      <point x="46" y="1648" type="line" smooth="yes"/>
      <point x="245" y="1648"/>
      <point x="405" y="1807"/>
      <point x="405" y="2034" type="curve"/>
      <point x="255" y="2034" type="line"/>
      <point x="255" y="1962"/>
      <point x="147" y="1873"/>
      <point x="24" y="1873" type="curve" smooth="yes"/>
      <point x="-22" y="1873" type="line" smooth="yes"/>
      <point x="-146" y="1873"/>
      <point x="-253" y="1962"/>
      <point x="-253" y="2034" type="curve"/>
      <point x="-404" y="2034" type="line"/>
      <point x="-404" y="1807"/>
      <point x="-244" y="1648"/>
    </contour>
    <contour>
      <point x="0" y="1785" type="move" name="_top"/>
    </contour>
  </outline>
</glyph>
<glyph name="uni0307.cap" format="1">
  <advance width="0"/>
  <outline>
    <contour>
      <point x="1" y="1693" type="curve" smooth="yes" name="hr00"/>
      <point x="93" y="1693"/>
      <point x="167" y="1751"/>
      <point x="167" y="1851" type="curve" smooth="yes"/>
      <point x="167" y="1950"/>
      <point x="93" y="2014"/>
      <point x="1" y="2014" type="curve" smooth="yes"/>
      <point x="-96" y="2014"/>
      <point x="-166" y="1950"/>
      <point x="-166" y="1851" type="curve" smooth="yes"/>
      <point x="-166" y="1751"/>
      <point x="-96" y="1693"/>
    </contour>
    <contour>
      <point x="2" y="1785" type="move" name="_top"/>
    </contour>
    <contour>
      <point x="0" y="1785" type="move" name="_top"/>
    </contour>
  </outline>
</glyph>
<glyph name="uni0308.cap" format="1">
  <advance width="0"/>
  <outline>
    <contour>
      <point x="-241" y="1693" type="curve" smooth="yes" name="hr00"/>
      <point x="-149" y="1693"/>
      <point x="-92" y="1764"/>
      <point x="-92" y="1854" type="curve" smooth="yes"/>
      <point x="-92" y="1943"/>
      <point x="-149" y="2015"/>
      <point x="-241" y="2015" type="curve" smooth="yes"/>
      <point x="-339" y="2015"/>
      <point x="-392" y="1943"/>
      <point x="-392" y="1854" type="curve" smooth="yes"/>
      <point x="-392" y="1764"/>
      <point x="-339" y="1693"/>
    </contour>
    <contour>
      <point x="240" y="1693" type="curve" smooth="yes"/>
      <point x="332" y="1693"/>
      <point x="389" y="1764"/>
      <point x="389" y="1854" type="curve" smooth="yes"/>
      <point x="389" y="1943"/>
      <point x="332" y="2015"/>
      <point x="240" y="2015" type="curve" smooth="yes"/>
      <point x="142" y="2015"/>
      <point x="89" y="1943"/>
      <point x="89" y="1854" type="curve" smooth="yes"/>
      <point x="89" y="1764"/>
      <point x="142" y="1693"/>
    </contour>
    <contour>
      <point x="0" y="1785" type="move" name="_top"/>
    </contour>
  </outline>
</glyph>
<glyph name="uni030B.cap" format="1">
  <advance width="0"/>
  <outline>
    <contour>
      <point x="96" y="1626" type="line" name="hr00"/>
      <point x="392" y="1761" type="line"/>
      <point x="453" y="1791"/>
      <point x="493" y="1852"/>
      <point x="493" y="1914" type="curve" smooth="yes"/>
      <point x="493" y="1989"/>
      <point x="430" y="2054"/>
      <point x="357" y="2054" type="curve" smooth="yes"/>
      <point x="316" y="2054"/>
      <point x="274" y="2035"/>
      <point x="241" y="1999" type="curve" smooth="yes"/>
      <point x="9" y="1741" type="line"/>
    </contour>
    <contour>
      <point x="-404" y="1626" type="line"/>
      <point x="-108" y="1761" type="line"/>
      <point x="-47" y="1791"/>
      <point x="-7" y="1852"/>
      <point x="-7" y="1914" type="curve" smooth="yes"/>
      <point x="-7" y="1989"/>
      <point x="-70" y="2054"/>
      <point x="-143" y="2054" type="curve" smooth="yes"/>
      <point x="-184" y="2054"/>
      <point x="-226" y="2035"/>
      <point x="-259" y="1999" type="curve" smooth="yes"/>
      <point x="-491" y="1741" type="line"/>
    </contour>
    <contour>
      <point x="-79" y="1785" type="move" name="_top"/>
    </contour>
  </outline>
</glyph>
<glyph name="uni030C.cap" format="1">
  <advance width="0"/>
  <outline>
    <contour>
      <point x="-1" y="1645" type="curve" smooth="yes" name="hr00"/>
      <point x="46" y="1645"/>
      <point x="92" y="1665"/>
      <point x="140" y="1711" type="curve" smooth="yes"/>
      <point x="379" y="1939" type="line"/>
      <point x="307" y="2034" type="line"/>
      <point x="205" y="1978"/>
      <point x="99" y="1916"/>
      <point x="-1" y="1862" type="curve"/>
      <point x="-303" y="2034" type="line"/>
      <point x="-379" y="1939" type="line"/>
      <point x="-140" y="1711" type="line"/>
      <point x="-92" y="1664"/>
      <point x="-42" y="1645"/>
    </contour>
    <contour>
      <point x="-2" y="1785" type="move" name="_top"/>
    </contour>
  </outline>
</glyph>
